<svg width="902" height="277" viewBox="0 0 902 277" fill="none" xmlns="http://www.w3.org/2000/svg">
<rect width="902" height="277" fill="white"/>
<rect width="220" height="134" transform="translate(15 81)" fill="white"/>
<path d="M47.2167 136.16C44.9498 138.171 41.7759 139.233 38.8671 139.536C35.6899 139.867 33.843 138.018 32.768 135.166C31.0934 130.723 32.3256 124.938 34.8392 121.111C40.2019 112.946 48.5417 107.133 57.233 103.067C63.1621 100.293 69.2676 98.3724 75.8278 98.1203C81.7744 97.8918 88.2575 97.7265 93.6034 100.215C97.542 101.573 96.7566 101.752 100.444 103.662C102.517 105.124 106.248 108.048 109.882 112.994C114.472 117.578 118.519 124.319 118.991 130.969C119.141 133.083 117.458 134.815 115.787 135.892C112.41 138.07 108.494 138.786 104.85 137.111C105.033 138.643 104.95 140.222 104.687 141.738C103.427 149.008 98.0332 156.204 91.5733 159.563C84.8028 163.084 77.5412 164.902 69.9576 164.902C64.5825 164.902 58.1583 162.955 54.727 158.526C50.2032 152.685 47.2731 145.962 47.2731 138.543C47.2731 137.744 47.2593 136.944 47.2167 136.16Z" fill="#EA7E00" stroke="black" stroke-linecap="round"/>
<path d="M69.2239 140.817C68.6779 144.775 66.6767 149.217 64.0154 152.219C63.1699 153.172 62.168 154.136 61 154.643" stroke="black" stroke-linecap="round"/>
<path d="M69.2241 141.263C70.4702 145.222 71.7826 148.289 75.3417 150.635C76.9406 151.689 79.3314 152.951 81.3236 152.854C83.0605 152.77 83.8635 152.431 84.3734 150.875" stroke="black" stroke-linecap="round"/>
<path d="M68.3561 137.07C67.2162 137.988 68.6577 140.364 69.0256 141.263C69.4451 140.127 70.1128 139.327 70.0888 138.029C70.0741 137.229 69.2499 136.35 68.3561 137.07Z" fill="#414618" stroke="black" stroke-linecap="round"/>
<path d="M59.0525 132.343C57.3359 130.455 58.8361 127.437 60.721 125.747C61.6522 127.704 61.7448 131.053 60.5505 132.721C60.2238 133.177 59.5382 132.877 59.0525 132.343Z" fill="#414618"/>
<path d="M60.721 125.747C58.8361 127.437 57.3359 130.455 59.0525 132.343C59.5382 132.877 60.2238 133.177 60.5505 132.721C61.8823 130.861 61.6138 126.911 60.3667 125.13C59.8375 124.375 58.8418 123.217 58.0497 124.329C57.1069 125.652 56.7227 127.186 56.6797 128.756C56.6343 130.413 56.7642 131.814 57.6635 133.235" stroke="black" stroke-linecap="round"/>
<path d="M81.3433 129.667C79.779 128.235 83.6558 122.958 84.0307 121.415C84.9756 123.658 85.1256 126.967 84.0962 128.908C83.8153 129.438 82.1726 130.426 81.3433 129.667Z" fill="#414618"/>
<path d="M84.0307 121.415C83.6558 122.958 79.779 128.235 81.3433 129.667C82.1726 130.426 83.8153 129.438 84.0962 128.908C85.2599 126.713 84.9164 122.771 83.621 120.597C81.3557 116.796 79.2335 123.175 78.7567 124.897C78.4223 126.105 77.945 128.819 78.7753 129.895" stroke="black" stroke-linecap="round"/>
<path d="M52.8052 169.98C52.8876 176.498 52.2176 182.995 51.936 189.52C51.8739 190.959 52.3094 193.003 52.3636 192.46" stroke="black" stroke-linecap="round"/>
<path d="M47.6922 177.845C52.0901 174.924 56.2859 172.801 61.5266 171.931C61.6325 171.913 66.8407 170.922 66.9797 171.983C67.092 172.841 65.962 174.09 65.4403 174.599C63.4802 176.509 60.8876 177.804 58.556 179.161C56.0849 180.599 53.6181 182.151 51.057 183.42C48.9321 184.473 55.4822 181.727 57.7116 180.928C60.1686 180.048 62.6794 179.232 65.2509 178.77C65.8772 178.657 66.8663 178.385 67.5137 178.608C67.951 178.759 67.946 179.481 67.9034 179.835C67.6544 181.902 65.2472 183.478 63.8742 184.674C60.4714 187.637 56.9168 190.221 53.0608 192.522C51.478 193.466 49.894 194.379 48.6141 195.736" stroke="black" stroke-linecap="round"/>
<path d="M74.7979 167.344C75.0639 171.756 74.9141 176.179 74.7115 180.583C74.5921 183.181 74.2564 185.816 74.4349 188.423C74.4866 189.178 75.0912 189.385 74.7042 188.73" stroke="black" stroke-linecap="round"/>
<path d="M71.1167 171.304C72.5337 170.763 73.8858 170.291 75.3932 170.032C77.371 169.693 79.3404 169.493 81.3511 169.431C82.0791 169.409 84.7611 169.211 85.7257 169.94C87.2663 171.105 83.1296 174.657 82.2869 175.23C81.2779 175.917 80.2468 176.519 79.1728 177.098C78.9175 177.235 76.5015 178.661 76.6794 178.709C77.1076 178.823 78.2545 178.514 78.5352 178.471C80.868 178.106 83.2041 177.745 85.5565 177.52C85.9829 177.479 89.7729 176.876 88.955 178.466C88.1496 180.031 86.2098 181.286 84.8849 182.283C82.6113 183.993 80.2146 185.526 77.8535 187.107C76.4565 188.043 75.1197 189.05 73.7737 190.058C73.3654 190.363 73.0791 190.589 72.6216 190.723" stroke="black" stroke-linecap="round"/>
<path d="M93.7036 165.856C93.9756 172.223 93.4163 178.652 93.8653 185.003C93.9307 185.928 93.9043 185.946 93.8571 184.885" stroke="black" stroke-linecap="round"/>
<path d="M91.0342 167.399C95.5075 166.264 99.9784 165.168 104.564 164.457C105.709 164.28 103.217 164.678 104.941 164.403" stroke="black" stroke-linecap="round"/>
<path d="M91.9584 175.543C95.2768 174.541 98.5586 173.907 101.998 173.356" stroke="black" stroke-linecap="round"/>
<path d="M172.297 144.861C171.359 145.644 170.045 146.057 168.842 146.175C167.527 146.304 166.763 145.584 166.318 144.474C165.625 142.743 166.135 140.491 167.175 139C169.394 135.82 172.845 133.557 176.441 131.973C178.895 130.893 181.421 130.145 184.136 130.047C186.596 129.958 189.279 129.894 191.491 130.863C193.121 131.391 192.796 131.461 194.322 132.205C195.179 132.774 196.723 133.913 198.227 135.839C200.126 137.624 201.801 140.25 201.996 142.839C202.058 143.662 201.362 144.337 200.67 144.756C199.273 145.604 197.653 145.883 196.145 145.231C196.221 145.828 196.186 146.443 196.077 147.033C195.556 149.864 193.324 152.666 190.651 153.975C187.849 155.346 184.845 156.054 181.707 156.054C179.482 156.054 176.824 155.296 175.404 153.571C173.532 151.296 172.32 148.678 172.32 145.789C172.32 145.477 172.314 145.166 172.297 144.861Z" fill="#EA7E00" stroke="black" stroke-width="0.5" stroke-linecap="round"/>
<path d="M181.353 146.826C181.107 148.38 180.205 150.124 179.006 151.302C178.625 151.677 178.173 152.055 177.647 152.254" stroke="black" stroke-width="0.5" stroke-linecap="round"/>
<path d="M181.353 146.826C181.876 148.494 182.426 149.786 183.918 150.774C184.589 151.218 185.592 151.75 186.427 151.709C187.155 151.674 187.492 151.531 187.706 150.875" stroke="black" stroke-width="0.5" stroke-linecap="round"/>
<path d="M181.458 145.295C181.18 145.631 181.532 146.498 181.622 146.826C181.725 146.412 181.888 146.12 181.882 145.646C181.879 145.354 181.677 145.032 181.458 145.295Z" fill="#414618" stroke="black" stroke-width="0.5" stroke-linecap="round"/>
<path d="M176.964 143.354C176.471 142.676 176.902 141.593 177.443 140.987C177.71 141.689 177.737 142.891 177.394 143.489C177.3 143.653 177.103 143.546 176.964 143.354Z" fill="#414618"/>
<path d="M177.443 140.987C176.902 141.593 176.471 142.676 176.964 143.354C177.103 143.546 177.3 143.653 177.394 143.489C177.776 142.822 177.699 141.405 177.341 140.766C177.189 140.495 176.903 140.079 176.676 140.478C176.406 140.953 176.281 141.433 176.144 141.993C176.007 142.554 176.023 142.977 176.281 143.487" stroke="black" stroke-width="0.5" stroke-linecap="round"/>
<path d="M186.294 142.37C185.656 141.78 187.237 139.605 187.39 138.969C187.775 139.893 187.836 141.257 187.417 142.057C187.302 142.276 186.632 142.683 186.294 142.37Z" fill="#414618"/>
<path d="M187.39 138.969C187.237 139.605 185.656 141.78 186.294 142.37C186.632 142.683 187.302 142.276 187.417 142.057C187.891 141.153 187.751 139.528 187.223 138.632C186.299 137.065 185.434 139.694 185.24 140.404C185.103 140.902 184.909 142.021 185.247 142.464" stroke="black" stroke-width="0.5" stroke-linecap="round"/>
<path d="M174.609 158.228C174.643 160.784 174.366 163.332 174.249 165.89C174.224 166.455 174.404 167.256 174.426 167.043" stroke="black" stroke-width="0.5" stroke-linecap="round"/>
<path d="M172.493 161.312C174.313 160.166 176.049 159.334 178.218 158.992C178.262 158.985 180.417 158.597 180.474 159.013C180.521 159.349 180.053 159.839 179.837 160.039C179.026 160.788 177.954 161.296 176.989 161.828C175.966 162.392 174.946 163 173.886 163.498C173.006 163.911 175.717 162.834 176.639 162.521C177.656 162.175 178.695 161.856 179.759 161.674C180.018 161.63 180.428 161.524 180.695 161.611C180.876 161.67 180.874 161.953 180.857 162.092C180.754 162.903 179.758 163.521 179.189 163.99C177.781 165.152 176.311 166.165 174.715 167.067C174.06 167.438 173.405 167.796 172.875 168.328" stroke="black" stroke-width="0.5" stroke-linecap="round"/>
<path d="M183.227 157.035C183.321 158.765 183.242 160.5 183.142 162.227C183.082 163.245 182.934 164.278 182.998 165.301C183.016 165.597 183.266 165.679 183.108 165.422" stroke="black" stroke-width="0.5" stroke-linecap="round"/>
<path d="M181.689 158.58C182.278 158.371 182.839 158.189 183.463 158.09C184.283 157.961 185.098 157.887 185.931 157.867C186.232 157.86 187.342 157.788 187.739 158.076C188.372 158.536 186.647 159.92 186.296 160.143C185.876 160.411 185.447 160.645 185.001 160.869C184.894 160.923 183.89 161.477 183.963 161.496C184.14 161.542 184.615 161.423 184.732 161.406C185.698 161.268 186.666 161.132 187.64 161.048C187.817 161.033 189.387 160.805 189.043 161.427C188.704 162.039 187.896 162.527 187.344 162.915C186.397 163.581 185.4 164.177 184.417 164.792C183.836 165.156 183.279 165.548 182.718 165.941C182.548 166.06 182.429 166.148 182.239 166.199" stroke="black" stroke-width="0.5" stroke-linecap="round"/>
<path d="M191.15 156.36C191.336 158.852 191.18 161.38 191.439 163.864C191.477 164.225 191.466 164.233 191.434 163.817" stroke="black" stroke-width="0.5" stroke-linecap="round"/>
<path d="M190.064 157.003C191.901 156.495 193.737 156.002 195.625 155.659C196.097 155.573 195.071 155.765 195.781 155.633" stroke="black" stroke-width="0.5" stroke-linecap="round"/>
<path d="M190.541 160.182C191.902 159.743 193.251 159.448 194.667 159.184" stroke="black" stroke-width="0.5" stroke-linecap="round"/>
<path d="M309.703 132.062C309.204 130.451 310.064 129.387 311.655 128.706C312.309 128.426 313.283 129.024 313.606 129.78C313.98 132.112 313.81 132.782 313.054 134.042C310.31 138.616 304.455 140.873 299.235 141.393C294.962 141.819 292.479 139.442 291.033 135.776C288.781 130.064 290.438 122.628 293.818 117.708C301.03 107.212 312.246 99.7396 323.934 94.513C331.908 90.9475 340.118 88.4786 348.941 88.1546C356.938 87.8609 365.657 87.6485 372.846 90.8479C378.143 92.5931 377.086 92.8236 382.045 95.2781C384.833 97.1576 389.851 100.916 394.738 107.274C400.911 113.167 406.353 121.832 406.987 130.381C407.189 133.098 404.926 135.324 402.679 136.709C397.907 139.65 392.335 140.518 387.228 137.925C384.915 136.75 380.886 132.723 381.55 129.847C381.961 128.064 385.275 131.632 385.505 131.937C388.158 135.458 388.512 140.031 387.751 144.224C386.057 153.569 378.803 162.819 370.116 167.138C361.011 171.664 351.245 174 341.046 174C333.818 174 325.178 171.498 320.564 165.804C314.48 158.296 310.54 149.654 310.54 140.117C310.54 137.298 310.4 134.478 309.703 132.062Z" stroke="#414618" stroke-width="3" stroke-linecap="round"/>
<path d="M458.703 132.062C458.204 130.451 459.064 129.387 460.655 128.706C461.309 128.426 462.283 129.024 462.606 129.78C462.98 132.112 462.81 132.782 462.054 134.042C459.31 138.616 453.455 140.873 448.235 141.393C443.962 141.819 441.479 139.442 440.033 135.776C437.781 130.064 439.438 122.628 442.818 117.708C450.03 107.212 461.246 99.7396 472.934 94.513C480.908 90.9475 489.118 88.4786 497.941 88.1546C505.938 87.8609 514.657 87.6485 521.846 90.8479C527.143 92.5931 526.086 92.8236 531.045 95.2781C533.833 97.1576 538.851 100.916 543.738 107.274C549.911 113.167 555.353 121.832 555.987 130.381C556.189 133.098 553.926 135.324 551.679 136.709C546.907 139.65 541.335 140.518 536.228 137.925C533.915 136.75 529.886 132.723 530.55 129.847C530.961 128.064 534.275 131.632 534.505 131.937C537.158 135.458 537.512 140.031 536.751 144.224C535.057 153.569 527.803 162.819 519.116 167.138C510.011 171.664 500.245 174 490.046 174C482.818 174 474.178 171.498 469.564 165.804C463.48 158.296 459.54 149.654 459.54 140.117C459.54 137.298 459.4 134.478 458.703 132.062Z" stroke="#414618" stroke-width="3" stroke-linecap="round"/>
<circle cx="477" cy="129" r="5" fill="#EA7E00"/>
<path d="M598.703 132.062C598.204 130.451 599.064 129.387 600.655 128.706C601.309 128.426 602.283 129.024 602.606 129.78C602.98 132.112 602.81 132.782 602.054 134.042C599.31 138.616 593.455 140.873 588.235 141.393C583.962 141.819 581.479 139.442 580.033 135.776C577.781 130.064 579.438 122.628 582.818 117.708C590.03 107.212 601.246 99.7396 612.934 94.513C620.908 90.9475 629.118 88.4786 637.941 88.1546C645.938 87.8609 654.657 87.6485 661.846 90.8479C667.143 92.5931 666.086 92.8236 671.045 95.2781C673.833 97.1576 678.851 100.916 683.738 107.274C689.911 113.167 695.353 121.832 695.987 130.381C696.189 133.098 693.926 135.324 691.679 136.709C686.907 139.65 681.335 140.518 676.228 137.925C673.915 136.75 669.886 132.723 670.55 129.847C670.961 128.064 674.275 131.632 674.505 131.937C677.158 135.458 677.512 140.031 676.751 144.224C675.057 153.569 667.803 162.819 659.116 167.138C650.011 171.664 640.245 174 630.046 174C622.818 174 614.178 171.498 609.564 165.804C603.48 158.296 599.54 149.654 599.54 140.117C599.54 137.298 599.4 134.478 598.703 132.062Z" stroke="#414618" stroke-width="3" stroke-linecap="round"/>
<circle cx="617" cy="129" r="5" fill="#EA7E00"/>
<circle cx="638" cy="129" r="5" fill="#EA7E00"/>
<path d="M738.703 132.062C738.204 130.451 739.064 129.387 740.655 128.706C741.309 128.426 742.283 129.024 742.606 129.78C742.98 132.112 742.81 132.782 742.054 134.042C739.31 138.616 733.455 140.873 728.235 141.393C723.962 141.819 721.479 139.442 720.033 135.776C717.781 130.064 719.438 122.628 722.818 117.708C730.03 107.212 741.246 99.7396 752.934 94.513C760.908 90.9475 769.118 88.4786 777.941 88.1546C785.938 87.8609 794.657 87.6485 801.846 90.8479C807.143 92.5931 806.086 92.8236 811.045 95.2781C813.833 97.1576 818.851 100.916 823.738 107.274C829.911 113.167 835.353 121.832 835.987 130.381C836.189 133.098 833.926 135.324 831.679 136.709C826.907 139.65 821.335 140.518 816.228 137.925C813.915 136.75 809.886 132.723 810.55 129.847C810.961 128.064 814.275 131.632 814.505 131.937C817.158 135.458 817.512 140.031 816.751 144.224C815.057 153.569 807.803 162.819 799.116 167.138C790.011 171.664 780.245 174 770.046 174C762.818 174 754.178 171.498 749.564 165.804C743.48 158.296 739.54 149.654 739.54 140.117C739.54 137.298 739.4 134.478 738.703 132.062Z" stroke="#414618" stroke-width="3" stroke-linecap="round"/>
<circle cx="757" cy="129" r="5" fill="#EA7E00"/>
<circle cx="778" cy="129" r="5" fill="#EA7E00"/>
<circle cx="799" cy="129" r="5" fill="#EA7E00"/>
<path d="M299.114 185.684H303.496V184.2H299.114V185.684ZM299.114 189.576H303.356V188.134H299.114V189.576ZM298.092 184.2V194H299.716V184.2H298.092ZM305.211 184.998C305.211 185.25 305.304 185.469 305.491 185.656C305.687 185.833 305.911 185.922 306.163 185.922C306.433 185.922 306.662 185.833 306.849 185.656C307.035 185.469 307.129 185.25 307.129 184.998C307.129 184.737 307.035 184.517 306.849 184.34C306.662 184.163 306.433 184.074 306.163 184.074C305.911 184.074 305.687 184.163 305.491 184.34C305.304 184.517 305.211 184.737 305.211 184.998ZM305.421 187.56V194H306.919V187.56H305.421ZM313.143 190.08V194H314.697V189.898C314.697 189.133 314.506 188.531 314.123 188.092C313.741 187.644 313.185 187.42 312.457 187.42C312.019 187.42 311.636 187.513 311.309 187.7C310.992 187.887 310.731 188.171 310.525 188.554V187.56H308.999V194H310.525V190.08C310.525 189.791 310.581 189.539 310.693 189.324C310.815 189.1 310.983 188.932 311.197 188.82C311.412 188.699 311.664 188.638 311.953 188.638C312.355 188.638 312.653 188.759 312.849 189.002C313.045 189.245 313.143 189.604 313.143 190.08ZM321.472 183.08V194H322.998V183.08H321.472ZM316.138 190.78C316.138 191.48 316.283 192.082 316.572 192.586C316.861 193.09 317.244 193.477 317.72 193.748C318.205 194.009 318.723 194.14 319.274 194.14C319.815 194.14 320.287 194.005 320.688 193.734C321.099 193.463 321.421 193.076 321.654 192.572C321.897 192.068 322.018 191.471 322.018 190.78C322.018 190.08 321.897 189.483 321.654 188.988C321.421 188.484 321.099 188.097 320.688 187.826C320.287 187.555 319.815 187.42 319.274 187.42C318.723 187.42 318.205 187.555 317.72 187.826C317.244 188.087 316.861 188.47 316.572 188.974C316.283 189.469 316.138 190.071 316.138 190.78ZM317.706 190.78C317.706 190.351 317.795 189.982 317.972 189.674C318.149 189.366 318.383 189.133 318.672 188.974C318.971 188.815 319.293 188.736 319.638 188.736C319.937 188.736 320.226 188.815 320.506 188.974C320.786 189.133 321.015 189.366 321.192 189.674C321.379 189.973 321.472 190.341 321.472 190.78C321.472 191.219 321.379 191.592 321.192 191.9C321.015 192.199 320.786 192.427 320.506 192.586C320.226 192.745 319.937 192.824 319.638 192.824C319.293 192.824 318.971 192.745 318.672 192.586C318.383 192.427 318.149 192.194 317.972 191.886C317.795 191.578 317.706 191.209 317.706 190.78ZM324.816 184.998C324.816 185.25 324.91 185.469 325.096 185.656C325.292 185.833 325.516 185.922 325.768 185.922C326.039 185.922 326.268 185.833 326.454 185.656C326.641 185.469 326.734 185.25 326.734 184.998C326.734 184.737 326.641 184.517 326.454 184.34C326.268 184.163 326.039 184.074 325.768 184.074C325.516 184.074 325.292 184.163 325.096 184.34C324.91 184.517 324.816 184.737 324.816 184.998ZM325.026 187.56V194H326.524V187.56H325.026ZM332.749 190.08V194H334.303V189.898C334.303 189.133 334.111 188.531 333.729 188.092C333.346 187.644 332.791 187.42 332.063 187.42C331.624 187.42 331.241 187.513 330.915 187.7C330.597 187.887 330.336 188.171 330.131 188.554V187.56H328.605V194H330.131V190.08C330.131 189.791 330.187 189.539 330.299 189.324C330.42 189.1 330.588 188.932 330.803 188.82C331.017 188.699 331.269 188.638 331.559 188.638C331.96 188.638 332.259 188.759 332.455 189.002C332.651 189.245 332.749 189.604 332.749 190.08ZM335.87 194.434C335.888 194.994 336.033 195.489 336.304 195.918C336.574 196.347 336.957 196.679 337.452 196.912C337.946 197.155 338.539 197.276 339.23 197.276C339.818 197.276 340.364 197.15 340.868 196.898C341.372 196.655 341.778 196.282 342.086 195.778C342.403 195.274 342.562 194.635 342.562 193.86V187.56H341.078V193.86C341.078 194.345 340.984 194.742 340.798 195.05C340.62 195.358 340.387 195.587 340.098 195.736C339.808 195.885 339.51 195.96 339.202 195.96C338.838 195.96 338.52 195.89 338.25 195.75C337.979 195.619 337.769 195.437 337.62 195.204C337.47 194.98 337.391 194.723 337.382 194.434H335.87ZM335.744 190.738C335.744 191.447 335.888 192.049 336.178 192.544C336.467 193.039 336.85 193.417 337.326 193.678C337.811 193.939 338.329 194.07 338.88 194.07C339.421 194.07 339.892 193.939 340.294 193.678C340.704 193.407 341.026 193.025 341.26 192.53C341.502 192.026 341.624 191.429 341.624 190.738C341.624 190.038 341.502 189.445 341.26 188.96C341.026 188.465 340.704 188.087 340.294 187.826C339.892 187.555 339.421 187.42 338.88 187.42C338.329 187.42 337.811 187.551 337.326 187.812C336.85 188.073 336.467 188.451 336.178 188.946C335.888 189.431 335.744 190.029 335.744 190.738ZM337.312 190.738C337.312 190.309 337.4 189.945 337.578 189.646C337.755 189.347 337.988 189.123 338.278 188.974C338.576 188.815 338.898 188.736 339.244 188.736C339.468 188.736 339.687 188.778 339.902 188.862C340.116 188.946 340.312 189.077 340.49 189.254C340.667 189.422 340.807 189.632 340.91 189.884C341.022 190.127 341.078 190.411 341.078 190.738C341.078 191.177 340.984 191.545 340.798 191.844C340.62 192.143 340.392 192.371 340.112 192.53C339.832 192.679 339.542 192.754 339.244 192.754C338.898 192.754 338.576 192.679 338.278 192.53C337.988 192.371 337.755 192.143 337.578 191.844C337.4 191.536 337.312 191.167 337.312 190.738ZM347.668 187.56L350.678 194.448L352.61 190.108L354.64 194.448L357.65 187.56H355.998L354.486 191.41L352.61 187.07L350.818 191.382L349.32 187.56H347.668ZM359.566 191.998C359.566 191.793 359.613 191.62 359.706 191.48C359.809 191.34 359.958 191.233 360.154 191.158C360.35 191.074 360.607 191.032 360.924 191.032C361.288 191.032 361.634 191.079 361.96 191.172C362.287 191.265 362.595 191.415 362.884 191.62V190.85C362.8 190.747 362.656 190.635 362.45 190.514C362.245 190.383 361.984 190.271 361.666 190.178C361.358 190.085 360.99 190.038 360.56 190.038C359.758 190.038 359.137 190.225 358.698 190.598C358.26 190.962 358.04 191.457 358.04 192.082C358.04 192.521 358.143 192.894 358.348 193.202C358.554 193.51 358.829 193.743 359.174 193.902C359.52 194.061 359.893 194.14 360.294 194.14C360.668 194.14 361.032 194.075 361.386 193.944C361.75 193.804 362.049 193.594 362.282 193.314C362.525 193.034 362.646 192.689 362.646 192.278L362.422 191.438C362.422 191.765 362.348 192.045 362.198 192.278C362.049 192.511 361.848 192.693 361.596 192.824C361.354 192.945 361.078 193.006 360.77 193.006C360.537 193.006 360.327 192.969 360.14 192.894C359.963 192.819 359.823 192.707 359.72 192.558C359.618 192.399 359.566 192.213 359.566 191.998ZM359.09 189.24C359.193 189.175 359.338 189.095 359.524 189.002C359.711 188.899 359.935 188.815 360.196 188.75C360.467 188.675 360.752 188.638 361.05 188.638C361.246 188.638 361.428 188.657 361.596 188.694C361.764 188.731 361.909 188.792 362.03 188.876C362.161 188.96 362.259 189.067 362.324 189.198C362.39 189.329 362.422 189.497 362.422 189.702V194H363.906V189.408C363.906 188.979 363.79 188.615 363.556 188.316C363.332 188.017 363.015 187.793 362.604 187.644C362.194 187.485 361.727 187.406 361.204 187.406C360.598 187.406 360.066 187.49 359.608 187.658C359.151 187.826 358.773 187.999 358.474 188.176L359.09 189.24ZM365.669 183.08V194H367.195V183.08H365.669ZM369.058 183.08V194H370.542V183.08H369.058ZM372.908 187.56L370.136 190.22L373.202 194H375.05L371.984 190.22L374.77 187.56H372.908ZM378.641 194.14C379.388 194.14 380.027 193.995 380.559 193.706C381.091 193.407 381.53 192.969 381.875 192.39L380.559 191.872C380.363 192.217 380.111 192.474 379.803 192.642C379.495 192.81 379.131 192.894 378.711 192.894C378.319 192.894 377.988 192.81 377.717 192.642C377.446 192.474 377.236 192.227 377.087 191.9C376.947 191.573 376.882 191.181 376.891 190.724C376.891 190.257 376.961 189.865 377.101 189.548C377.25 189.231 377.456 188.988 377.717 188.82C377.988 188.652 378.314 188.568 378.697 188.568C379.014 188.568 379.29 188.638 379.523 188.778C379.766 188.918 379.952 189.114 380.083 189.366C380.223 189.618 380.293 189.917 380.293 190.262C380.293 190.327 380.274 190.407 380.237 190.5C380.209 190.593 380.181 190.668 380.153 190.724L380.615 190.08H376.261V191.13H381.917C381.917 191.093 381.917 191.032 381.917 190.948C381.926 190.864 381.931 190.785 381.931 190.71C381.931 190.019 381.805 189.431 381.553 188.946C381.301 188.451 380.932 188.073 380.447 187.812C379.971 187.551 379.392 187.42 378.711 187.42C378.03 187.42 377.437 187.56 376.933 187.84C376.429 188.111 376.037 188.498 375.757 189.002C375.486 189.506 375.351 190.099 375.351 190.78C375.351 191.452 375.486 192.04 375.757 192.544C376.028 193.048 376.41 193.44 376.905 193.72C377.409 194 377.988 194.14 378.641 194.14ZM384.886 187.56H383.388V194H384.886V187.56ZM386.804 189.17L387.546 187.896C387.397 187.719 387.219 187.593 387.014 187.518C386.809 187.443 386.589 187.406 386.356 187.406C386.029 187.406 385.712 187.527 385.404 187.77C385.105 188.003 384.858 188.321 384.662 188.722C384.475 189.114 384.382 189.567 384.382 190.08L384.886 190.374C384.886 190.066 384.919 189.8 384.984 189.576C385.059 189.343 385.175 189.161 385.334 189.03C385.493 188.899 385.698 188.834 385.95 188.834C386.137 188.834 386.291 188.862 386.412 188.918C386.543 188.974 386.673 189.058 386.804 189.17ZM387.959 193.286C387.959 193.547 388.053 193.776 388.239 193.972C388.435 194.168 388.673 194.266 388.953 194.266C389.233 194.266 389.467 194.168 389.653 193.972C389.84 193.776 389.933 193.547 389.933 193.286C389.933 193.015 389.84 192.787 389.653 192.6C389.467 192.404 389.233 192.306 388.953 192.306C388.673 192.306 388.435 192.404 388.239 192.6C388.053 192.787 387.959 193.015 387.959 193.286ZM392.28 193.286C392.28 193.547 392.373 193.776 392.56 193.972C392.756 194.168 392.994 194.266 393.274 194.266C393.554 194.266 393.787 194.168 393.974 193.972C394.16 193.776 394.254 193.547 394.254 193.286C394.254 193.015 394.16 192.787 393.974 192.6C393.787 192.404 393.554 192.306 393.274 192.306C392.994 192.306 392.756 192.404 392.56 192.6C392.373 192.787 392.28 193.015 392.28 193.286ZM396.6 193.286C396.6 193.547 396.693 193.776 396.88 193.972C397.076 194.168 397.314 194.266 397.594 194.266C397.874 194.266 398.107 194.168 398.294 193.972C398.48 193.776 398.574 193.547 398.574 193.286C398.574 193.015 398.48 192.787 398.294 192.6C398.107 192.404 397.874 192.306 397.594 192.306C397.314 192.306 397.076 192.404 396.88 192.6C396.693 192.787 396.6 193.015 396.6 193.286Z" fill="#414618"/>
<path d="M448.114 185.684H452.496V184.2H448.114V185.684ZM448.114 189.576H452.356V188.134H448.114V189.576ZM447.092 184.2V194H448.716V184.2H447.092ZM454.211 184.998C454.211 185.25 454.304 185.469 454.491 185.656C454.687 185.833 454.911 185.922 455.163 185.922C455.433 185.922 455.662 185.833 455.849 185.656C456.035 185.469 456.129 185.25 456.129 184.998C456.129 184.737 456.035 184.517 455.849 184.34C455.662 184.163 455.433 184.074 455.163 184.074C454.911 184.074 454.687 184.163 454.491 184.34C454.304 184.517 454.211 184.737 454.211 184.998ZM454.421 187.56V194H455.919V187.56H454.421ZM462.143 190.08V194H463.697V189.898C463.697 189.133 463.506 188.531 463.123 188.092C462.741 187.644 462.185 187.42 461.457 187.42C461.019 187.42 460.636 187.513 460.309 187.7C459.992 187.887 459.731 188.171 459.525 188.554V187.56H457.999V194H459.525V190.08C459.525 189.791 459.581 189.539 459.693 189.324C459.815 189.1 459.983 188.932 460.197 188.82C460.412 188.699 460.664 188.638 460.953 188.638C461.355 188.638 461.653 188.759 461.849 189.002C462.045 189.245 462.143 189.604 462.143 190.08ZM470.472 183.08V194H471.998V183.08H470.472ZM465.138 190.78C465.138 191.48 465.283 192.082 465.572 192.586C465.861 193.09 466.244 193.477 466.72 193.748C467.205 194.009 467.723 194.14 468.274 194.14C468.815 194.14 469.287 194.005 469.688 193.734C470.099 193.463 470.421 193.076 470.654 192.572C470.897 192.068 471.018 191.471 471.018 190.78C471.018 190.08 470.897 189.483 470.654 188.988C470.421 188.484 470.099 188.097 469.688 187.826C469.287 187.555 468.815 187.42 468.274 187.42C467.723 187.42 467.205 187.555 466.72 187.826C466.244 188.087 465.861 188.47 465.572 188.974C465.283 189.469 465.138 190.071 465.138 190.78ZM466.706 190.78C466.706 190.351 466.795 189.982 466.972 189.674C467.149 189.366 467.383 189.133 467.672 188.974C467.971 188.815 468.293 188.736 468.638 188.736C468.937 188.736 469.226 188.815 469.506 188.974C469.786 189.133 470.015 189.366 470.192 189.674C470.379 189.973 470.472 190.341 470.472 190.78C470.472 191.219 470.379 191.592 470.192 191.9C470.015 192.199 469.786 192.427 469.506 192.586C469.226 192.745 468.937 192.824 468.638 192.824C468.293 192.824 467.971 192.745 467.672 192.586C467.383 192.427 467.149 192.194 466.972 191.886C466.795 191.578 466.706 191.209 466.706 190.78ZM473.816 184.998C473.816 185.25 473.91 185.469 474.096 185.656C474.292 185.833 474.516 185.922 474.768 185.922C475.039 185.922 475.268 185.833 475.454 185.656C475.641 185.469 475.734 185.25 475.734 184.998C475.734 184.737 475.641 184.517 475.454 184.34C475.268 184.163 475.039 184.074 474.768 184.074C474.516 184.074 474.292 184.163 474.096 184.34C473.91 184.517 473.816 184.737 473.816 184.998ZM474.026 187.56V194H475.524V187.56H474.026ZM481.749 190.08V194H483.303V189.898C483.303 189.133 483.111 188.531 482.729 188.092C482.346 187.644 481.791 187.42 481.063 187.42C480.624 187.42 480.241 187.513 479.915 187.7C479.597 187.887 479.336 188.171 479.131 188.554V187.56H477.605V194H479.131V190.08C479.131 189.791 479.187 189.539 479.299 189.324C479.42 189.1 479.588 188.932 479.803 188.82C480.017 188.699 480.269 188.638 480.559 188.638C480.96 188.638 481.259 188.759 481.455 189.002C481.651 189.245 481.749 189.604 481.749 190.08ZM484.87 194.434C484.888 194.994 485.033 195.489 485.304 195.918C485.574 196.347 485.957 196.679 486.452 196.912C486.946 197.155 487.539 197.276 488.23 197.276C488.818 197.276 489.364 197.15 489.868 196.898C490.372 196.655 490.778 196.282 491.086 195.778C491.403 195.274 491.562 194.635 491.562 193.86V187.56H490.078V193.86C490.078 194.345 489.984 194.742 489.798 195.05C489.62 195.358 489.387 195.587 489.098 195.736C488.808 195.885 488.51 195.96 488.202 195.96C487.838 195.96 487.52 195.89 487.25 195.75C486.979 195.619 486.769 195.437 486.62 195.204C486.47 194.98 486.391 194.723 486.382 194.434H484.87ZM484.744 190.738C484.744 191.447 484.888 192.049 485.178 192.544C485.467 193.039 485.85 193.417 486.326 193.678C486.811 193.939 487.329 194.07 487.88 194.07C488.421 194.07 488.892 193.939 489.294 193.678C489.704 193.407 490.026 193.025 490.26 192.53C490.502 192.026 490.624 191.429 490.624 190.738C490.624 190.038 490.502 189.445 490.26 188.96C490.026 188.465 489.704 188.087 489.294 187.826C488.892 187.555 488.421 187.42 487.88 187.42C487.329 187.42 486.811 187.551 486.326 187.812C485.85 188.073 485.467 188.451 485.178 188.946C484.888 189.431 484.744 190.029 484.744 190.738ZM486.312 190.738C486.312 190.309 486.4 189.945 486.578 189.646C486.755 189.347 486.988 189.123 487.278 188.974C487.576 188.815 487.898 188.736 488.244 188.736C488.468 188.736 488.687 188.778 488.902 188.862C489.116 188.946 489.312 189.077 489.49 189.254C489.667 189.422 489.807 189.632 489.91 189.884C490.022 190.127 490.078 190.411 490.078 190.738C490.078 191.177 489.984 191.545 489.798 191.844C489.62 192.143 489.392 192.371 489.112 192.53C488.832 192.679 488.542 192.754 488.244 192.754C487.898 192.754 487.576 192.679 487.278 192.53C486.988 192.371 486.755 192.143 486.578 191.844C486.4 191.536 486.312 191.167 486.312 190.738ZM496.668 187.56L499.678 194.448L501.61 190.108L503.64 194.448L506.65 187.56H504.998L503.486 191.41L501.61 187.07L499.818 191.382L498.32 187.56H496.668ZM508.566 191.998C508.566 191.793 508.613 191.62 508.706 191.48C508.809 191.34 508.958 191.233 509.154 191.158C509.35 191.074 509.607 191.032 509.924 191.032C510.288 191.032 510.634 191.079 510.96 191.172C511.287 191.265 511.595 191.415 511.884 191.62V190.85C511.8 190.747 511.656 190.635 511.45 190.514C511.245 190.383 510.984 190.271 510.666 190.178C510.358 190.085 509.99 190.038 509.56 190.038C508.758 190.038 508.137 190.225 507.698 190.598C507.26 190.962 507.04 191.457 507.04 192.082C507.04 192.521 507.143 192.894 507.348 193.202C507.554 193.51 507.829 193.743 508.174 193.902C508.52 194.061 508.893 194.14 509.294 194.14C509.668 194.14 510.032 194.075 510.386 193.944C510.75 193.804 511.049 193.594 511.282 193.314C511.525 193.034 511.646 192.689 511.646 192.278L511.422 191.438C511.422 191.765 511.348 192.045 511.198 192.278C511.049 192.511 510.848 192.693 510.596 192.824C510.354 192.945 510.078 193.006 509.77 193.006C509.537 193.006 509.327 192.969 509.14 192.894C508.963 192.819 508.823 192.707 508.72 192.558C508.618 192.399 508.566 192.213 508.566 191.998ZM508.09 189.24C508.193 189.175 508.338 189.095 508.524 189.002C508.711 188.899 508.935 188.815 509.196 188.75C509.467 188.675 509.752 188.638 510.05 188.638C510.246 188.638 510.428 188.657 510.596 188.694C510.764 188.731 510.909 188.792 511.03 188.876C511.161 188.96 511.259 189.067 511.324 189.198C511.39 189.329 511.422 189.497 511.422 189.702V194H512.906V189.408C512.906 188.979 512.79 188.615 512.556 188.316C512.332 188.017 512.015 187.793 511.604 187.644C511.194 187.485 510.727 187.406 510.204 187.406C509.598 187.406 509.066 187.49 508.608 187.658C508.151 187.826 507.773 187.999 507.474 188.176L508.09 189.24ZM514.669 183.08V194H516.195V183.08H514.669ZM518.058 183.08V194H519.542V183.08H518.058ZM521.908 187.56L519.136 190.22L522.202 194H524.05L520.984 190.22L523.77 187.56H521.908ZM527.641 194.14C528.388 194.14 529.027 193.995 529.559 193.706C530.091 193.407 530.53 192.969 530.875 192.39L529.559 191.872C529.363 192.217 529.111 192.474 528.803 192.642C528.495 192.81 528.131 192.894 527.711 192.894C527.319 192.894 526.988 192.81 526.717 192.642C526.446 192.474 526.236 192.227 526.087 191.9C525.947 191.573 525.882 191.181 525.891 190.724C525.891 190.257 525.961 189.865 526.101 189.548C526.25 189.231 526.456 188.988 526.717 188.82C526.988 188.652 527.314 188.568 527.697 188.568C528.014 188.568 528.29 188.638 528.523 188.778C528.766 188.918 528.952 189.114 529.083 189.366C529.223 189.618 529.293 189.917 529.293 190.262C529.293 190.327 529.274 190.407 529.237 190.5C529.209 190.593 529.181 190.668 529.153 190.724L529.615 190.08H525.261V191.13H530.917C530.917 191.093 530.917 191.032 530.917 190.948C530.926 190.864 530.931 190.785 530.931 190.71C530.931 190.019 530.805 189.431 530.553 188.946C530.301 188.451 529.932 188.073 529.447 187.812C528.971 187.551 528.392 187.42 527.711 187.42C527.03 187.42 526.437 187.56 525.933 187.84C525.429 188.111 525.037 188.498 524.757 189.002C524.486 189.506 524.351 190.099 524.351 190.78C524.351 191.452 524.486 192.04 524.757 192.544C525.028 193.048 525.41 193.44 525.905 193.72C526.409 194 526.988 194.14 527.641 194.14ZM533.886 187.56H532.388V194H533.886V187.56ZM535.804 189.17L536.546 187.896C536.397 187.719 536.219 187.593 536.014 187.518C535.809 187.443 535.589 187.406 535.356 187.406C535.029 187.406 534.712 187.527 534.404 187.77C534.105 188.003 533.858 188.321 533.662 188.722C533.475 189.114 533.382 189.567 533.382 190.08L533.886 190.374C533.886 190.066 533.919 189.8 533.984 189.576C534.059 189.343 534.175 189.161 534.334 189.03C534.493 188.899 534.698 188.834 534.95 188.834C535.137 188.834 535.291 188.862 535.412 188.918C535.543 188.974 535.673 189.058 535.804 189.17ZM536.959 193.286C536.959 193.547 537.053 193.776 537.239 193.972C537.435 194.168 537.673 194.266 537.953 194.266C538.233 194.266 538.467 194.168 538.653 193.972C538.84 193.776 538.933 193.547 538.933 193.286C538.933 193.015 538.84 192.787 538.653 192.6C538.467 192.404 538.233 192.306 537.953 192.306C537.673 192.306 537.435 192.404 537.239 192.6C537.053 192.787 536.959 193.015 536.959 193.286ZM541.28 193.286C541.28 193.547 541.373 193.776 541.56 193.972C541.756 194.168 541.994 194.266 542.274 194.266C542.554 194.266 542.787 194.168 542.974 193.972C543.16 193.776 543.254 193.547 543.254 193.286C543.254 193.015 543.16 192.787 542.974 192.6C542.787 192.404 542.554 192.306 542.274 192.306C541.994 192.306 541.756 192.404 541.56 192.6C541.373 192.787 541.28 193.015 541.28 193.286ZM545.6 193.286C545.6 193.547 545.693 193.776 545.88 193.972C546.076 194.168 546.314 194.266 546.594 194.266C546.874 194.266 547.107 194.168 547.294 193.972C547.48 193.776 547.574 193.547 547.574 193.286C547.574 193.015 547.48 192.787 547.294 192.6C547.107 192.404 546.874 192.306 546.594 192.306C546.314 192.306 546.076 192.404 545.88 192.6C545.693 192.787 545.6 193.015 545.6 193.286Z" fill="#414618"/>
<path d="M588.114 185.684H592.496V184.2H588.114V185.684ZM588.114 189.576H592.356V188.134H588.114V189.576ZM587.092 184.2V194H588.716V184.2H587.092ZM594.211 184.998C594.211 185.25 594.304 185.469 594.491 185.656C594.687 185.833 594.911 185.922 595.163 185.922C595.433 185.922 595.662 185.833 595.849 185.656C596.035 185.469 596.129 185.25 596.129 184.998C596.129 184.737 596.035 184.517 595.849 184.34C595.662 184.163 595.433 184.074 595.163 184.074C594.911 184.074 594.687 184.163 594.491 184.34C594.304 184.517 594.211 184.737 594.211 184.998ZM594.421 187.56V194H595.919V187.56H594.421ZM602.143 190.08V194H603.697V189.898C603.697 189.133 603.506 188.531 603.123 188.092C602.741 187.644 602.185 187.42 601.457 187.42C601.019 187.42 600.636 187.513 600.309 187.7C599.992 187.887 599.731 188.171 599.525 188.554V187.56H597.999V194H599.525V190.08C599.525 189.791 599.581 189.539 599.693 189.324C599.815 189.1 599.983 188.932 600.197 188.82C600.412 188.699 600.664 188.638 600.953 188.638C601.355 188.638 601.653 188.759 601.849 189.002C602.045 189.245 602.143 189.604 602.143 190.08ZM610.472 183.08V194H611.998V183.08H610.472ZM605.138 190.78C605.138 191.48 605.283 192.082 605.572 192.586C605.861 193.09 606.244 193.477 606.72 193.748C607.205 194.009 607.723 194.14 608.274 194.14C608.815 194.14 609.287 194.005 609.688 193.734C610.099 193.463 610.421 193.076 610.654 192.572C610.897 192.068 611.018 191.471 611.018 190.78C611.018 190.08 610.897 189.483 610.654 188.988C610.421 188.484 610.099 188.097 609.688 187.826C609.287 187.555 608.815 187.42 608.274 187.42C607.723 187.42 607.205 187.555 606.72 187.826C606.244 188.087 605.861 188.47 605.572 188.974C605.283 189.469 605.138 190.071 605.138 190.78ZM606.706 190.78C606.706 190.351 606.795 189.982 606.972 189.674C607.149 189.366 607.383 189.133 607.672 188.974C607.971 188.815 608.293 188.736 608.638 188.736C608.937 188.736 609.226 188.815 609.506 188.974C609.786 189.133 610.015 189.366 610.192 189.674C610.379 189.973 610.472 190.341 610.472 190.78C610.472 191.219 610.379 191.592 610.192 191.9C610.015 192.199 609.786 192.427 609.506 192.586C609.226 192.745 608.937 192.824 608.638 192.824C608.293 192.824 607.971 192.745 607.672 192.586C607.383 192.427 607.149 192.194 606.972 191.886C606.795 191.578 606.706 191.209 606.706 190.78ZM613.816 184.998C613.816 185.25 613.91 185.469 614.096 185.656C614.292 185.833 614.516 185.922 614.768 185.922C615.039 185.922 615.268 185.833 615.454 185.656C615.641 185.469 615.734 185.25 615.734 184.998C615.734 184.737 615.641 184.517 615.454 184.34C615.268 184.163 615.039 184.074 614.768 184.074C614.516 184.074 614.292 184.163 614.096 184.34C613.91 184.517 613.816 184.737 613.816 184.998ZM614.026 187.56V194H615.524V187.56H614.026ZM621.749 190.08V194H623.303V189.898C623.303 189.133 623.111 188.531 622.729 188.092C622.346 187.644 621.791 187.42 621.063 187.42C620.624 187.42 620.241 187.513 619.915 187.7C619.597 187.887 619.336 188.171 619.131 188.554V187.56H617.605V194H619.131V190.08C619.131 189.791 619.187 189.539 619.299 189.324C619.42 189.1 619.588 188.932 619.803 188.82C620.017 188.699 620.269 188.638 620.559 188.638C620.96 188.638 621.259 188.759 621.455 189.002C621.651 189.245 621.749 189.604 621.749 190.08ZM624.87 194.434C624.888 194.994 625.033 195.489 625.304 195.918C625.574 196.347 625.957 196.679 626.452 196.912C626.946 197.155 627.539 197.276 628.23 197.276C628.818 197.276 629.364 197.15 629.868 196.898C630.372 196.655 630.778 196.282 631.086 195.778C631.403 195.274 631.562 194.635 631.562 193.86V187.56H630.078V193.86C630.078 194.345 629.984 194.742 629.798 195.05C629.62 195.358 629.387 195.587 629.098 195.736C628.808 195.885 628.51 195.96 628.202 195.96C627.838 195.96 627.52 195.89 627.25 195.75C626.979 195.619 626.769 195.437 626.62 195.204C626.47 194.98 626.391 194.723 626.382 194.434H624.87ZM624.744 190.738C624.744 191.447 624.888 192.049 625.178 192.544C625.467 193.039 625.85 193.417 626.326 193.678C626.811 193.939 627.329 194.07 627.88 194.07C628.421 194.07 628.892 193.939 629.294 193.678C629.704 193.407 630.026 193.025 630.26 192.53C630.502 192.026 630.624 191.429 630.624 190.738C630.624 190.038 630.502 189.445 630.26 188.96C630.026 188.465 629.704 188.087 629.294 187.826C628.892 187.555 628.421 187.42 627.88 187.42C627.329 187.42 626.811 187.551 626.326 187.812C625.85 188.073 625.467 188.451 625.178 188.946C624.888 189.431 624.744 190.029 624.744 190.738ZM626.312 190.738C626.312 190.309 626.4 189.945 626.578 189.646C626.755 189.347 626.988 189.123 627.278 188.974C627.576 188.815 627.898 188.736 628.244 188.736C628.468 188.736 628.687 188.778 628.902 188.862C629.116 188.946 629.312 189.077 629.49 189.254C629.667 189.422 629.807 189.632 629.91 189.884C630.022 190.127 630.078 190.411 630.078 190.738C630.078 191.177 629.984 191.545 629.798 191.844C629.62 192.143 629.392 192.371 629.112 192.53C628.832 192.679 628.542 192.754 628.244 192.754C627.898 192.754 627.576 192.679 627.278 192.53C626.988 192.371 626.755 192.143 626.578 191.844C626.4 191.536 626.312 191.167 626.312 190.738ZM636.668 187.56L639.678 194.448L641.61 190.108L643.64 194.448L646.65 187.56H644.998L643.486 191.41L641.61 187.07L639.818 191.382L638.32 187.56H636.668ZM648.566 191.998C648.566 191.793 648.613 191.62 648.706 191.48C648.809 191.34 648.958 191.233 649.154 191.158C649.35 191.074 649.607 191.032 649.924 191.032C650.288 191.032 650.634 191.079 650.96 191.172C651.287 191.265 651.595 191.415 651.884 191.62V190.85C651.8 190.747 651.656 190.635 651.45 190.514C651.245 190.383 650.984 190.271 650.666 190.178C650.358 190.085 649.99 190.038 649.56 190.038C648.758 190.038 648.137 190.225 647.698 190.598C647.26 190.962 647.04 191.457 647.04 192.082C647.04 192.521 647.143 192.894 647.348 193.202C647.554 193.51 647.829 193.743 648.174 193.902C648.52 194.061 648.893 194.14 649.294 194.14C649.668 194.14 650.032 194.075 650.386 193.944C650.75 193.804 651.049 193.594 651.282 193.314C651.525 193.034 651.646 192.689 651.646 192.278L651.422 191.438C651.422 191.765 651.348 192.045 651.198 192.278C651.049 192.511 650.848 192.693 650.596 192.824C650.354 192.945 650.078 193.006 649.77 193.006C649.537 193.006 649.327 192.969 649.14 192.894C648.963 192.819 648.823 192.707 648.72 192.558C648.618 192.399 648.566 192.213 648.566 191.998ZM648.09 189.24C648.193 189.175 648.338 189.095 648.524 189.002C648.711 188.899 648.935 188.815 649.196 188.75C649.467 188.675 649.752 188.638 650.05 188.638C650.246 188.638 650.428 188.657 650.596 188.694C650.764 188.731 650.909 188.792 651.03 188.876C651.161 188.96 651.259 189.067 651.324 189.198C651.39 189.329 651.422 189.497 651.422 189.702V194H652.906V189.408C652.906 188.979 652.79 188.615 652.556 188.316C652.332 188.017 652.015 187.793 651.604 187.644C651.194 187.485 650.727 187.406 650.204 187.406C649.598 187.406 649.066 187.49 648.608 187.658C648.151 187.826 647.773 187.999 647.474 188.176L648.09 189.24ZM654.669 183.08V194H656.195V183.08H654.669ZM658.058 183.08V194H659.542V183.08H658.058ZM661.908 187.56L659.136 190.22L662.202 194H664.05L660.984 190.22L663.77 187.56H661.908ZM667.641 194.14C668.388 194.14 669.027 193.995 669.559 193.706C670.091 193.407 670.53 192.969 670.875 192.39L669.559 191.872C669.363 192.217 669.111 192.474 668.803 192.642C668.495 192.81 668.131 192.894 667.711 192.894C667.319 192.894 666.988 192.81 666.717 192.642C666.446 192.474 666.236 192.227 666.087 191.9C665.947 191.573 665.882 191.181 665.891 190.724C665.891 190.257 665.961 189.865 666.101 189.548C666.25 189.231 666.456 188.988 666.717 188.82C666.988 188.652 667.314 188.568 667.697 188.568C668.014 188.568 668.29 188.638 668.523 188.778C668.766 188.918 668.952 189.114 669.083 189.366C669.223 189.618 669.293 189.917 669.293 190.262C669.293 190.327 669.274 190.407 669.237 190.5C669.209 190.593 669.181 190.668 669.153 190.724L669.615 190.08H665.261V191.13H670.917C670.917 191.093 670.917 191.032 670.917 190.948C670.926 190.864 670.931 190.785 670.931 190.71C670.931 190.019 670.805 189.431 670.553 188.946C670.301 188.451 669.932 188.073 669.447 187.812C668.971 187.551 668.392 187.42 667.711 187.42C667.03 187.42 666.437 187.56 665.933 187.84C665.429 188.111 665.037 188.498 664.757 189.002C664.486 189.506 664.351 190.099 664.351 190.78C664.351 191.452 664.486 192.04 664.757 192.544C665.028 193.048 665.41 193.44 665.905 193.72C666.409 194 666.988 194.14 667.641 194.14ZM673.886 187.56H672.388V194H673.886V187.56ZM675.804 189.17L676.546 187.896C676.397 187.719 676.219 187.593 676.014 187.518C675.809 187.443 675.589 187.406 675.356 187.406C675.029 187.406 674.712 187.527 674.404 187.77C674.105 188.003 673.858 188.321 673.662 188.722C673.475 189.114 673.382 189.567 673.382 190.08L673.886 190.374C673.886 190.066 673.919 189.8 673.984 189.576C674.059 189.343 674.175 189.161 674.334 189.03C674.493 188.899 674.698 188.834 674.95 188.834C675.137 188.834 675.291 188.862 675.412 188.918C675.543 188.974 675.673 189.058 675.804 189.17ZM676.959 193.286C676.959 193.547 677.053 193.776 677.239 193.972C677.435 194.168 677.673 194.266 677.953 194.266C678.233 194.266 678.467 194.168 678.653 193.972C678.84 193.776 678.933 193.547 678.933 193.286C678.933 193.015 678.84 192.787 678.653 192.6C678.467 192.404 678.233 192.306 677.953 192.306C677.673 192.306 677.435 192.404 677.239 192.6C677.053 192.787 676.959 193.015 676.959 193.286ZM681.28 193.286C681.28 193.547 681.373 193.776 681.56 193.972C681.756 194.168 681.994 194.266 682.274 194.266C682.554 194.266 682.787 194.168 682.974 193.972C683.16 193.776 683.254 193.547 683.254 193.286C683.254 193.015 683.16 192.787 682.974 192.6C682.787 192.404 682.554 192.306 682.274 192.306C681.994 192.306 681.756 192.404 681.56 192.6C681.373 192.787 681.28 193.015 681.28 193.286ZM685.6 193.286C685.6 193.547 685.693 193.776 685.88 193.972C686.076 194.168 686.314 194.266 686.594 194.266C686.874 194.266 687.107 194.168 687.294 193.972C687.48 193.776 687.574 193.547 687.574 193.286C687.574 193.015 687.48 192.787 687.294 192.6C687.107 192.404 686.874 192.306 686.594 192.306C686.314 192.306 686.076 192.404 685.88 192.6C685.693 192.787 685.6 193.015 685.6 193.286Z" fill="#414618"/>
<path d="M728.114 185.684H732.496V184.2H728.114V185.684ZM728.114 189.576H732.356V188.134H728.114V189.576ZM727.092 184.2V194H728.716V184.2H727.092ZM734.211 184.998C734.211 185.25 734.304 185.469 734.491 185.656C734.687 185.833 734.911 185.922 735.163 185.922C735.433 185.922 735.662 185.833 735.849 185.656C736.035 185.469 736.129 185.25 736.129 184.998C736.129 184.737 736.035 184.517 735.849 184.34C735.662 184.163 735.433 184.074 735.163 184.074C734.911 184.074 734.687 184.163 734.491 184.34C734.304 184.517 734.211 184.737 734.211 184.998ZM734.421 187.56V194H735.919V187.56H734.421ZM742.143 190.08V194H743.697V189.898C743.697 189.133 743.506 188.531 743.123 188.092C742.741 187.644 742.185 187.42 741.457 187.42C741.019 187.42 740.636 187.513 740.309 187.7C739.992 187.887 739.731 188.171 739.525 188.554V187.56H737.999V194H739.525V190.08C739.525 189.791 739.581 189.539 739.693 189.324C739.815 189.1 739.983 188.932 740.197 188.82C740.412 188.699 740.664 188.638 740.953 188.638C741.355 188.638 741.653 188.759 741.849 189.002C742.045 189.245 742.143 189.604 742.143 190.08ZM750.472 183.08V194H751.998V183.08H750.472ZM745.138 190.78C745.138 191.48 745.283 192.082 745.572 192.586C745.861 193.09 746.244 193.477 746.72 193.748C747.205 194.009 747.723 194.14 748.274 194.14C748.815 194.14 749.287 194.005 749.688 193.734C750.099 193.463 750.421 193.076 750.654 192.572C750.897 192.068 751.018 191.471 751.018 190.78C751.018 190.08 750.897 189.483 750.654 188.988C750.421 188.484 750.099 188.097 749.688 187.826C749.287 187.555 748.815 187.42 748.274 187.42C747.723 187.42 747.205 187.555 746.72 187.826C746.244 188.087 745.861 188.47 745.572 188.974C745.283 189.469 745.138 190.071 745.138 190.78ZM746.706 190.78C746.706 190.351 746.795 189.982 746.972 189.674C747.149 189.366 747.383 189.133 747.672 188.974C747.971 188.815 748.293 188.736 748.638 188.736C748.937 188.736 749.226 188.815 749.506 188.974C749.786 189.133 750.015 189.366 750.192 189.674C750.379 189.973 750.472 190.341 750.472 190.78C750.472 191.219 750.379 191.592 750.192 191.9C750.015 192.199 749.786 192.427 749.506 192.586C749.226 192.745 748.937 192.824 748.638 192.824C748.293 192.824 747.971 192.745 747.672 192.586C747.383 192.427 747.149 192.194 746.972 191.886C746.795 191.578 746.706 191.209 746.706 190.78ZM753.816 184.998C753.816 185.25 753.91 185.469 754.096 185.656C754.292 185.833 754.516 185.922 754.768 185.922C755.039 185.922 755.268 185.833 755.454 185.656C755.641 185.469 755.734 185.25 755.734 184.998C755.734 184.737 755.641 184.517 755.454 184.34C755.268 184.163 755.039 184.074 754.768 184.074C754.516 184.074 754.292 184.163 754.096 184.34C753.91 184.517 753.816 184.737 753.816 184.998ZM754.026 187.56V194H755.524V187.56H754.026ZM761.749 190.08V194H763.303V189.898C763.303 189.133 763.111 188.531 762.729 188.092C762.346 187.644 761.791 187.42 761.063 187.42C760.624 187.42 760.241 187.513 759.915 187.7C759.597 187.887 759.336 188.171 759.131 188.554V187.56H757.605V194H759.131V190.08C759.131 189.791 759.187 189.539 759.299 189.324C759.42 189.1 759.588 188.932 759.803 188.82C760.017 188.699 760.269 188.638 760.559 188.638C760.96 188.638 761.259 188.759 761.455 189.002C761.651 189.245 761.749 189.604 761.749 190.08ZM764.87 194.434C764.888 194.994 765.033 195.489 765.304 195.918C765.574 196.347 765.957 196.679 766.452 196.912C766.946 197.155 767.539 197.276 768.23 197.276C768.818 197.276 769.364 197.15 769.868 196.898C770.372 196.655 770.778 196.282 771.086 195.778C771.403 195.274 771.562 194.635 771.562 193.86V187.56H770.078V193.86C770.078 194.345 769.984 194.742 769.798 195.05C769.62 195.358 769.387 195.587 769.098 195.736C768.808 195.885 768.51 195.96 768.202 195.96C767.838 195.96 767.52 195.89 767.25 195.75C766.979 195.619 766.769 195.437 766.62 195.204C766.47 194.98 766.391 194.723 766.382 194.434H764.87ZM764.744 190.738C764.744 191.447 764.888 192.049 765.178 192.544C765.467 193.039 765.85 193.417 766.326 193.678C766.811 193.939 767.329 194.07 767.88 194.07C768.421 194.07 768.892 193.939 769.294 193.678C769.704 193.407 770.026 193.025 770.26 192.53C770.502 192.026 770.624 191.429 770.624 190.738C770.624 190.038 770.502 189.445 770.26 188.96C770.026 188.465 769.704 188.087 769.294 187.826C768.892 187.555 768.421 187.42 767.88 187.42C767.329 187.42 766.811 187.551 766.326 187.812C765.85 188.073 765.467 188.451 765.178 188.946C764.888 189.431 764.744 190.029 764.744 190.738ZM766.312 190.738C766.312 190.309 766.4 189.945 766.578 189.646C766.755 189.347 766.988 189.123 767.278 188.974C767.576 188.815 767.898 188.736 768.244 188.736C768.468 188.736 768.687 188.778 768.902 188.862C769.116 188.946 769.312 189.077 769.49 189.254C769.667 189.422 769.807 189.632 769.91 189.884C770.022 190.127 770.078 190.411 770.078 190.738C770.078 191.177 769.984 191.545 769.798 191.844C769.62 192.143 769.392 192.371 769.112 192.53C768.832 192.679 768.542 192.754 768.244 192.754C767.898 192.754 767.576 192.679 767.278 192.53C766.988 192.371 766.755 192.143 766.578 191.844C766.4 191.536 766.312 191.167 766.312 190.738ZM776.668 187.56L779.678 194.448L781.61 190.108L783.64 194.448L786.65 187.56H784.998L783.486 191.41L781.61 187.07L779.818 191.382L778.32 187.56H776.668ZM788.566 191.998C788.566 191.793 788.613 191.62 788.706 191.48C788.809 191.34 788.958 191.233 789.154 191.158C789.35 191.074 789.607 191.032 789.924 191.032C790.288 191.032 790.634 191.079 790.96 191.172C791.287 191.265 791.595 191.415 791.884 191.62V190.85C791.8 190.747 791.656 190.635 791.45 190.514C791.245 190.383 790.984 190.271 790.666 190.178C790.358 190.085 789.99 190.038 789.56 190.038C788.758 190.038 788.137 190.225 787.698 190.598C787.26 190.962 787.04 191.457 787.04 192.082C787.04 192.521 787.143 192.894 787.348 193.202C787.554 193.51 787.829 193.743 788.174 193.902C788.52 194.061 788.893 194.14 789.294 194.14C789.668 194.14 790.032 194.075 790.386 193.944C790.75 193.804 791.049 193.594 791.282 193.314C791.525 193.034 791.646 192.689 791.646 192.278L791.422 191.438C791.422 191.765 791.348 192.045 791.198 192.278C791.049 192.511 790.848 192.693 790.596 192.824C790.354 192.945 790.078 193.006 789.77 193.006C789.537 193.006 789.327 192.969 789.14 192.894C788.963 192.819 788.823 192.707 788.72 192.558C788.618 192.399 788.566 192.213 788.566 191.998ZM788.09 189.24C788.193 189.175 788.338 189.095 788.524 189.002C788.711 188.899 788.935 188.815 789.196 188.75C789.467 188.675 789.752 188.638 790.05 188.638C790.246 188.638 790.428 188.657 790.596 188.694C790.764 188.731 790.909 188.792 791.03 188.876C791.161 188.96 791.259 189.067 791.324 189.198C791.39 189.329 791.422 189.497 791.422 189.702V194H792.906V189.408C792.906 188.979 792.79 188.615 792.556 188.316C792.332 188.017 792.015 187.793 791.604 187.644C791.194 187.485 790.727 187.406 790.204 187.406C789.598 187.406 789.066 187.49 788.608 187.658C788.151 187.826 787.773 187.999 787.474 188.176L788.09 189.24ZM794.669 183.08V194H796.195V183.08H794.669ZM798.058 183.08V194H799.542V183.08H798.058ZM801.908 187.56L799.136 190.22L802.202 194H804.05L800.984 190.22L803.77 187.56H801.908ZM807.641 194.14C808.388 194.14 809.027 193.995 809.559 193.706C810.091 193.407 810.53 192.969 810.875 192.39L809.559 191.872C809.363 192.217 809.111 192.474 808.803 192.642C808.495 192.81 808.131 192.894 807.711 192.894C807.319 192.894 806.988 192.81 806.717 192.642C806.446 192.474 806.236 192.227 806.087 191.9C805.947 191.573 805.882 191.181 805.891 190.724C805.891 190.257 805.961 189.865 806.101 189.548C806.25 189.231 806.456 188.988 806.717 188.82C806.988 188.652 807.314 188.568 807.697 188.568C808.014 188.568 808.29 188.638 808.523 188.778C808.766 188.918 808.952 189.114 809.083 189.366C809.223 189.618 809.293 189.917 809.293 190.262C809.293 190.327 809.274 190.407 809.237 190.5C809.209 190.593 809.181 190.668 809.153 190.724L809.615 190.08H805.261V191.13H810.917C810.917 191.093 810.917 191.032 810.917 190.948C810.926 190.864 810.931 190.785 810.931 190.71C810.931 190.019 810.805 189.431 810.553 188.946C810.301 188.451 809.932 188.073 809.447 187.812C808.971 187.551 808.392 187.42 807.711 187.42C807.03 187.42 806.437 187.56 805.933 187.84C805.429 188.111 805.037 188.498 804.757 189.002C804.486 189.506 804.351 190.099 804.351 190.78C804.351 191.452 804.486 192.04 804.757 192.544C805.028 193.048 805.41 193.44 805.905 193.72C806.409 194 806.988 194.14 807.641 194.14ZM813.886 187.56H812.388V194H813.886V187.56ZM815.804 189.17L816.546 187.896C816.397 187.719 816.219 187.593 816.014 187.518C815.809 187.443 815.589 187.406 815.356 187.406C815.029 187.406 814.712 187.527 814.404 187.77C814.105 188.003 813.858 188.321 813.662 188.722C813.475 189.114 813.382 189.567 813.382 190.08L813.886 190.374C813.886 190.066 813.919 189.8 813.984 189.576C814.059 189.343 814.175 189.161 814.334 189.03C814.493 188.899 814.698 188.834 814.95 188.834C815.137 188.834 815.291 188.862 815.412 188.918C815.543 188.974 815.673 189.058 815.804 189.17ZM816.959 193.286C816.959 193.547 817.053 193.776 817.239 193.972C817.435 194.168 817.673 194.266 817.953 194.266C818.233 194.266 818.467 194.168 818.653 193.972C818.84 193.776 818.933 193.547 818.933 193.286C818.933 193.015 818.84 192.787 818.653 192.6C818.467 192.404 818.233 192.306 817.953 192.306C817.673 192.306 817.435 192.404 817.239 192.6C817.053 192.787 816.959 193.015 816.959 193.286ZM821.28 193.286C821.28 193.547 821.373 193.776 821.56 193.972C821.756 194.168 821.994 194.266 822.274 194.266C822.554 194.266 822.787 194.168 822.974 193.972C823.16 193.776 823.254 193.547 823.254 193.286C823.254 193.015 823.16 192.787 822.974 192.6C822.787 192.404 822.554 192.306 822.274 192.306C821.994 192.306 821.756 192.404 821.56 192.6C821.373 192.787 821.28 193.015 821.28 193.286ZM825.6 193.286C825.6 193.547 825.693 193.776 825.88 193.972C826.076 194.168 826.314 194.266 826.594 194.266C826.874 194.266 827.107 194.168 827.294 193.972C827.48 193.776 827.574 193.547 827.574 193.286C827.574 193.015 827.48 192.787 827.294 192.6C827.107 192.404 826.874 192.306 826.594 192.306C826.314 192.306 826.076 192.404 825.88 192.6C825.693 192.787 825.6 193.015 825.6 193.286Z" fill="#414618"/>
</svg>
