<svg width="399" height="413" viewBox="0 0 399 413" fill="none" xmlns="http://www.w3.org/2000/svg">
<rect width="399" height="413" fill="white"/>
<path d="M50.744 85.248H84.6V75.52H50.744V85.248ZM77.816 59.2V104H88.632V59.2H77.816ZM47.736 59.2V104H58.552V59.2H47.736ZM112.065 104.64C115.819 104.64 118.998 103.915 121.601 102.464C124.246 101.013 126.337 98.8373 127.873 95.936L119.233 93.824C118.507 95.104 117.526 96.064 116.289 96.704C115.094 97.344 113.643 97.664 111.937 97.664C110.443 97.664 109.185 97.344 108.161 96.704C107.137 96.0213 106.369 95.04 105.857 93.76C105.345 92.48 105.089 90.944 105.089 89.152C105.131 87.1893 105.387 85.568 105.857 84.288C106.369 82.9653 107.115 81.984 108.097 81.344C109.078 80.704 110.294 80.384 111.745 80.384C112.897 80.384 113.899 80.64 114.753 81.152C115.606 81.664 116.267 82.3893 116.737 83.328C117.206 84.2667 117.441 85.376 117.441 86.656C117.441 86.9547 117.355 87.3387 117.185 87.808C117.057 88.2347 116.886 88.5973 116.673 88.896L118.977 85.952H100.801V91.328H127.681C127.766 91.0293 127.809 90.6667 127.809 90.24C127.809 89.7707 127.809 89.3013 127.809 88.832C127.809 85.6747 127.19 82.9867 125.953 80.768C124.715 78.5493 122.923 76.864 120.577 75.712C118.23 74.5173 115.35 73.92 111.937 73.92C108.523 73.92 105.558 74.5387 103.041 75.776C100.566 77.0133 98.6672 78.784 97.3445 81.088C96.0218 83.392 95.3605 86.1227 95.3605 89.28C95.3605 92.3947 96.0432 95.104 97.4085 97.408C98.7738 99.712 100.694 101.504 103.169 102.784C105.686 104.021 108.651 104.64 112.065 104.64ZM141.264 94.784C141.264 94.0587 141.435 93.4613 141.776 92.992C142.117 92.48 142.629 92.096 143.312 91.84C143.995 91.584 144.912 91.456 146.064 91.456C147.557 91.456 148.965 91.6693 150.288 92.096C151.653 92.48 152.848 93.056 153.872 93.824V89.536C153.36 88.9813 152.592 88.448 151.568 87.936C150.544 87.424 149.307 86.9973 147.856 86.656C146.448 86.3147 144.848 86.144 143.056 86.144C139.387 86.144 136.549 86.976 134.544 88.64C132.539 90.2613 131.536 92.48 131.536 95.296C131.536 97.3013 132.005 99.008 132.944 100.416C133.925 101.824 135.205 102.891 136.784 103.616C138.405 104.299 140.155 104.64 142.032 104.64C143.909 104.64 145.659 104.32 147.28 103.68C148.901 102.997 150.224 102.016 151.248 100.736C152.272 99.4133 152.784 97.8133 152.784 95.936L151.76 92.096C151.76 93.4613 151.461 94.6133 150.864 95.552C150.267 96.4907 149.499 97.1947 148.56 97.664C147.621 98.1333 146.597 98.368 145.488 98.368C144.72 98.368 144.016 98.24 143.376 97.984C142.736 97.6853 142.224 97.28 141.84 96.768C141.456 96.2133 141.264 95.552 141.264 94.784ZM136.976 83.584C137.403 83.328 138.085 83.008 139.024 82.624C139.963 82.1973 141.051 81.8347 142.288 81.536C143.568 81.2373 144.869 81.088 146.192 81.088C147.088 81.088 147.877 81.1733 148.56 81.344C149.285 81.5147 149.883 81.792 150.352 82.176C150.821 82.56 151.163 83.0293 151.376 83.584C151.632 84.096 151.76 84.7147 151.76 85.44V104H161.04V83.264C161.04 81.216 160.443 79.488 159.248 78.08C158.053 76.672 156.432 75.6053 154.384 74.88C152.336 74.112 150.011 73.728 147.408 73.728C144.635 73.728 142.075 74.0907 139.728 74.816C137.381 75.5413 135.376 76.3093 133.712 77.12L136.976 83.584ZM190.612 54.08V104H200.276V54.08H190.612ZM166.548 89.28C166.548 92.5653 167.209 95.36 168.532 97.664C169.897 99.9253 171.647 101.653 173.78 102.848C175.913 104.043 178.175 104.64 180.564 104.64C183.039 104.64 185.215 104.021 187.092 102.784C189.012 101.547 190.527 99.776 191.636 97.472C192.745 95.168 193.3 92.4373 193.3 89.28C193.3 86.08 192.745 83.3493 191.636 81.088C190.527 78.784 189.012 77.0133 187.092 75.776C185.215 74.5387 183.039 73.92 180.564 73.92C178.175 73.92 175.913 74.5173 173.78 75.712C171.647 76.9067 169.897 78.6347 168.532 80.896C167.209 83.1573 166.548 85.952 166.548 89.28ZM176.724 89.28C176.724 87.744 177.044 86.4213 177.684 85.312C178.324 84.16 179.177 83.2853 180.244 82.688C181.311 82.048 182.484 81.728 183.764 81.728C184.873 81.728 185.94 82.0267 186.964 82.624C188.031 83.2213 188.905 84.096 189.588 85.248C190.271 86.3573 190.612 87.7013 190.612 89.28C190.612 90.8587 190.271 92.224 189.588 93.376C188.905 94.4853 188.031 95.3387 186.964 95.936C185.94 96.5333 184.873 96.832 183.764 96.832C182.484 96.832 181.311 96.5333 180.244 95.936C179.177 95.296 178.324 94.4213 177.684 93.312C177.044 92.16 176.724 90.816 176.724 89.28ZM222.752 104.64C226.507 104.64 229.685 103.915 232.288 102.464C234.933 101.013 237.024 98.8373 238.56 95.936L229.92 93.824C229.195 95.104 228.213 96.064 226.976 96.704C225.781 97.344 224.331 97.664 222.624 97.664C221.131 97.664 219.872 97.344 218.848 96.704C217.824 96.0213 217.056 95.04 216.544 93.76C216.032 92.48 215.776 90.944 215.776 89.152C215.819 87.1893 216.075 85.568 216.544 84.288C217.056 82.9653 217.803 81.984 218.784 81.344C219.765 80.704 220.981 80.384 222.432 80.384C223.584 80.384 224.587 80.64 225.44 81.152C226.293 81.664 226.955 82.3893 227.424 83.328C227.893 84.2667 228.128 85.376 228.128 86.656C228.128 86.9547 228.043 87.3387 227.872 87.808C227.744 88.2347 227.573 88.5973 227.36 88.896L229.664 85.952H211.488V91.328H238.368C238.453 91.0293 238.496 90.6667 238.496 90.24C238.496 89.7707 238.496 89.3013 238.496 88.832C238.496 85.6747 237.877 82.9867 236.64 80.768C235.403 78.5493 233.611 76.864 231.264 75.712C228.917 74.5173 226.037 73.92 222.624 73.92C219.211 73.92 216.245 74.5387 213.728 75.776C211.253 77.0133 209.355 78.784 208.032 81.088C206.709 83.392 206.048 86.1227 206.048 89.28C206.048 92.3947 206.731 95.104 208.096 97.408C209.461 99.712 211.381 101.504 213.856 102.784C216.373 104.021 219.339 104.64 222.752 104.64ZM254 74.56H244.464V104H254V74.56ZM262.512 84.544L266.672 76.288C266.16 75.52 265.413 74.9227 264.432 74.496C263.45 74.0693 262.426 73.856 261.36 73.856C259.738 73.856 258.181 74.3893 256.688 75.456C255.194 76.5227 253.978 77.9733 253.04 79.808C252.144 81.6427 251.696 83.7333 251.696 86.08L254 89.472C254 88.064 254.192 86.8693 254.576 85.888C254.96 84.9067 255.514 84.16 256.24 83.648C256.965 83.136 257.797 82.88 258.736 82.88C259.589 82.88 260.293 83.0293 260.848 83.328C261.445 83.6267 262 84.032 262.512 84.544ZM293.932 85.248H327.788V75.52H293.932V85.248ZM321.004 59.2V104H331.82V59.2H321.004ZM290.924 59.2V104H301.74V59.2H290.924ZM340.852 72.128L351.924 69.376V104H362.356V58.368L340.852 62.72V72.128Z" fill="#535353"/>
<path d="M86.904 159.216H111.576V153.024H86.904V159.216ZM107.208 140.4V174H114.072V140.4H107.208ZM84.648 140.4V174H91.512V140.4H84.648ZM131.144 174.48C133.8 174.48 136.072 173.968 137.96 172.944C139.88 171.888 141.416 170.32 142.568 168.24L137.144 166.56C136.504 167.616 135.688 168.416 134.696 168.96C133.736 169.472 132.568 169.728 131.192 169.728C129.976 169.728 128.936 169.456 128.072 168.912C127.208 168.368 126.552 167.584 126.104 166.56C125.688 165.536 125.48 164.288 125.48 162.816C125.512 161.28 125.736 160 126.152 158.976C126.6 157.92 127.224 157.136 128.024 156.624C128.856 156.08 129.88 155.808 131.096 155.808C132.088 155.808 132.952 156.032 133.688 156.48C134.424 156.928 134.984 157.536 135.368 158.304C135.784 159.072 135.992 160 135.992 161.088C135.992 161.312 135.928 161.6 135.8 161.952C135.704 162.272 135.592 162.528 135.464 162.72L137.144 160.512H122.792V164.352H142.568C142.6 164.16 142.616 163.904 142.616 163.584C142.648 163.264 142.664 162.96 142.664 162.672C142.664 160.304 142.216 158.288 141.32 156.624C140.424 154.928 139.112 153.648 137.384 152.784C135.688 151.888 133.624 151.44 131.192 151.44C128.76 151.44 126.648 151.92 124.856 152.88C123.064 153.808 121.672 155.136 120.68 156.864C119.72 158.56 119.24 160.592 119.24 162.96C119.24 165.296 119.72 167.328 120.68 169.056C121.672 170.752 123.064 172.08 124.856 173.04C126.648 174 128.744 174.48 131.144 174.48ZM151.769 167.136C151.769 166.496 151.913 165.968 152.201 165.552C152.489 165.104 152.937 164.768 153.545 164.544C154.153 164.288 154.937 164.16 155.897 164.16C157.081 164.16 158.201 164.32 159.257 164.64C160.345 164.96 161.321 165.44 162.185 166.08V163.2C161.865 162.816 161.337 162.416 160.601 162C159.865 161.584 158.953 161.232 157.865 160.944C156.809 160.656 155.577 160.512 154.169 160.512C151.417 160.512 149.289 161.136 147.785 162.384C146.281 163.632 145.529 165.328 145.529 167.472C145.529 168.976 145.881 170.256 146.585 171.312C147.321 172.336 148.281 173.12 149.465 173.664C150.649 174.208 151.929 174.48 153.305 174.48C154.649 174.48 155.929 174.24 157.145 173.76C158.393 173.28 159.401 172.56 160.169 171.6C160.969 170.64 161.369 169.456 161.369 168.048L160.601 165.168C160.601 166.224 160.361 167.136 159.881 167.904C159.401 168.64 158.777 169.216 158.009 169.632C157.241 170.016 156.377 170.208 155.417 170.208C154.745 170.208 154.121 170.096 153.545 169.872C153.001 169.616 152.569 169.264 152.249 168.816C151.929 168.336 151.769 167.776 151.769 167.136ZM149.369 158.16C149.689 157.936 150.185 157.664 150.857 157.344C151.529 157.024 152.329 156.752 153.257 156.528C154.185 156.304 155.161 156.192 156.185 156.192C156.857 156.192 157.465 156.256 158.009 156.384C158.553 156.512 159.017 156.72 159.401 157.008C159.817 157.296 160.121 157.664 160.313 158.112C160.505 158.528 160.601 159.04 160.601 159.648V174H166.601V158.352C166.601 156.848 166.185 155.584 165.353 154.56C164.521 153.504 163.369 152.704 161.897 152.16C160.425 151.616 158.745 151.344 156.857 151.344C154.809 151.344 152.953 151.632 151.289 152.208C149.625 152.752 148.217 153.328 147.065 153.936L149.369 158.16ZM189.041 136.56V174H195.281V136.56H189.041ZM170.896 162.96C170.896 165.392 171.393 167.472 172.385 169.2C173.377 170.928 174.689 172.24 176.321 173.136C177.953 174.032 179.681 174.48 181.505 174.48C183.361 174.48 184.993 174.016 186.401 173.088C187.841 172.16 188.961 170.832 189.761 169.104C190.593 167.376 191.009 165.328 191.009 162.96C191.009 160.56 190.593 158.512 189.761 156.816C188.961 155.088 187.841 153.76 186.401 152.832C184.993 151.904 183.361 151.44 181.505 151.44C179.681 151.44 177.953 151.888 176.321 152.784C174.689 153.68 173.377 154.992 172.385 156.72C171.393 158.416 170.896 160.496 170.896 162.96ZM177.329 162.96C177.329 161.648 177.601 160.512 178.145 159.552C178.689 158.592 179.425 157.856 180.353 157.344C181.281 156.832 182.273 156.576 183.329 156.576C184.257 156.576 185.153 156.832 186.017 157.344C186.913 157.824 187.633 158.544 188.177 159.504C188.753 160.464 189.041 161.616 189.041 162.96C189.041 164.304 188.753 165.456 188.177 166.416C187.633 167.376 186.913 168.112 186.017 168.624C185.153 169.104 184.257 169.344 183.329 169.344C182.273 169.344 181.281 169.088 180.353 168.576C179.425 168.064 178.689 167.328 178.145 166.368C177.601 165.408 177.329 164.272 177.329 162.96ZM211.676 174.48C214.332 174.48 216.604 173.968 218.492 172.944C220.412 171.888 221.948 170.32 223.1 168.24L217.676 166.56C217.036 167.616 216.22 168.416 215.228 168.96C214.268 169.472 213.1 169.728 211.724 169.728C210.508 169.728 209.468 169.456 208.604 168.912C207.74 168.368 207.084 167.584 206.636 166.56C206.22 165.536 206.012 164.288 206.012 162.816C206.044 161.28 206.268 160 206.684 158.976C207.132 157.92 207.756 157.136 208.556 156.624C209.388 156.08 210.412 155.808 211.628 155.808C212.62 155.808 213.484 156.032 214.22 156.48C214.956 156.928 215.516 157.536 215.9 158.304C216.316 159.072 216.524 160 216.524 161.088C216.524 161.312 216.46 161.6 216.332 161.952C216.236 162.272 216.124 162.528 215.996 162.72L217.676 160.512H203.324V164.352H223.1C223.132 164.16 223.148 163.904 223.148 163.584C223.18 163.264 223.196 162.96 223.196 162.672C223.196 160.304 222.748 158.288 221.852 156.624C220.956 154.928 219.644 153.648 217.916 152.784C216.22 151.888 214.156 151.44 211.724 151.44C209.292 151.44 207.18 151.92 205.388 152.88C203.596 153.808 202.204 155.136 201.212 156.864C200.252 158.56 199.771 160.592 199.771 162.96C199.771 165.296 200.252 167.328 201.212 169.056C202.204 170.752 203.596 172.08 205.388 173.04C207.18 174 209.276 174.48 211.676 174.48ZM233.981 151.92H227.885V174H233.981V151.92ZM240.461 158.4L243.293 153.12C242.845 152.544 242.253 152.112 241.517 151.824C240.813 151.536 240.061 151.392 239.261 151.392C238.109 151.392 236.989 151.808 235.901 152.64C234.813 153.44 233.933 154.528 233.261 155.904C232.589 157.248 232.253 158.8 232.253 160.56L233.981 162.288C233.981 161.232 234.109 160.336 234.365 159.6C234.653 158.832 235.069 158.24 235.613 157.824C236.157 157.408 236.813 157.2 237.581 157.2C238.221 157.2 238.749 157.312 239.165 157.536C239.613 157.728 240.045 158.016 240.461 158.4ZM263.81 159.216H288.482V153.024H263.81V159.216ZM284.114 140.4V174H290.978V140.4H284.114ZM261.554 140.4V174H268.418V140.4H261.554ZM295.523 174H322.547V167.712H308.483L317.219 159.456C318.627 158.176 319.763 156.752 320.627 155.184C321.491 153.616 321.923 151.936 321.923 150.144C321.923 148.928 321.667 147.712 321.155 146.496C320.675 145.28 319.923 144.176 318.899 143.184C317.907 142.16 316.643 141.344 315.107 140.736C313.603 140.096 311.843 139.776 309.827 139.776C307.107 139.776 304.803 140.352 302.915 141.504C301.059 142.624 299.651 144.144 298.691 146.064C297.731 147.984 297.251 150.144 297.251 152.544H303.971C303.971 151.2 304.195 150.016 304.643 148.992C305.123 147.968 305.779 147.184 306.611 146.64C307.475 146.064 308.499 145.776 309.683 145.776C310.515 145.776 311.251 145.92 311.891 146.208C312.531 146.464 313.075 146.816 313.523 147.264C313.971 147.712 314.307 148.224 314.531 148.8C314.755 149.376 314.867 149.968 314.867 150.576C314.867 151.44 314.707 152.272 314.387 153.072C314.067 153.872 313.603 154.672 312.995 155.472C312.387 156.272 311.651 157.136 310.787 158.064L295.523 174Z" fill="#535353"/>
<path d="M134.904 215.257H147.6V211.609H134.904V215.257ZM145.056 205.489V222.289H149.112V205.489H145.056ZM133.776 205.489V222.289H137.832V205.489H133.776ZM157.899 222.529C159.307 222.529 160.499 222.257 161.475 221.713C162.467 221.169 163.251 220.353 163.827 219.265L160.587 218.473C160.315 218.953 159.947 219.313 159.483 219.553C159.035 219.793 158.491 219.913 157.851 219.913C157.291 219.913 156.819 219.793 156.435 219.553C156.051 219.297 155.763 218.929 155.571 218.449C155.379 217.969 155.283 217.393 155.283 216.721C155.299 215.985 155.395 215.377 155.571 214.897C155.763 214.401 156.043 214.033 156.411 213.793C156.779 213.553 157.235 213.433 157.779 213.433C158.211 213.433 158.587 213.529 158.907 213.721C159.227 213.913 159.475 214.185 159.651 214.537C159.827 214.889 159.915 215.305 159.915 215.785C159.915 215.897 159.883 216.041 159.819 216.217C159.771 216.377 159.707 216.513 159.627 216.625L160.491 215.521H153.675V217.537H163.755C163.787 217.425 163.803 217.289 163.803 217.129C163.803 216.953 163.803 216.777 163.803 216.601C163.803 215.417 163.571 214.409 163.107 213.577C162.643 212.745 161.971 212.113 161.091 211.681C160.211 211.233 159.131 211.009 157.851 211.009C156.571 211.009 155.459 211.241 154.515 211.705C153.587 212.169 152.875 212.833 152.379 213.697C151.883 214.561 151.635 215.585 151.635 216.769C151.635 217.937 151.891 218.953 152.403 219.817C152.915 220.681 153.635 221.353 154.563 221.833C155.507 222.297 156.619 222.529 157.899 222.529ZM168.849 218.833C168.849 218.561 168.913 218.337 169.041 218.161C169.169 217.969 169.361 217.825 169.617 217.729C169.873 217.633 170.217 217.585 170.649 217.585C171.209 217.585 171.737 217.665 172.233 217.825C172.745 217.969 173.193 218.185 173.577 218.473V216.865C173.385 216.657 173.097 216.457 172.713 216.265C172.329 216.073 171.865 215.913 171.321 215.785C170.793 215.657 170.193 215.593 169.521 215.593C168.145 215.593 167.081 215.905 166.329 216.529C165.577 217.137 165.201 217.969 165.201 219.025C165.201 219.777 165.377 220.417 165.729 220.945C166.097 221.473 166.577 221.873 167.169 222.145C167.777 222.401 168.433 222.529 169.137 222.529C169.841 222.529 170.497 222.409 171.105 222.169C171.713 221.913 172.209 221.545 172.593 221.065C172.977 220.569 173.169 219.969 173.169 219.265L172.785 217.825C172.785 218.337 172.673 218.769 172.449 219.121C172.225 219.473 171.937 219.737 171.585 219.913C171.233 220.089 170.849 220.177 170.433 220.177C170.145 220.177 169.881 220.129 169.641 220.033C169.401 219.921 169.209 219.769 169.065 219.577C168.921 219.369 168.849 219.121 168.849 218.833ZM167.241 214.633C167.401 214.537 167.657 214.417 168.009 214.273C168.361 214.113 168.769 213.977 169.233 213.865C169.713 213.753 170.201 213.697 170.697 213.697C171.033 213.697 171.329 213.729 171.585 213.793C171.857 213.857 172.081 213.961 172.257 214.105C172.433 214.249 172.561 214.425 172.641 214.633C172.737 214.825 172.785 215.057 172.785 215.329V222.289H176.265V214.513C176.265 213.745 176.041 213.097 175.593 212.569C175.145 212.041 174.537 211.641 173.769 211.369C173.001 211.081 172.129 210.937 171.153 210.937C170.113 210.937 169.153 211.073 168.273 211.345C167.393 211.617 166.641 211.905 166.017 212.209L167.241 214.633ZM187.355 203.569V222.289H190.979V203.569H187.355ZM178.331 216.769C178.331 218.001 178.579 219.049 179.075 219.913C179.587 220.761 180.243 221.409 181.043 221.857C181.843 222.305 182.691 222.529 183.587 222.529C184.515 222.529 185.331 222.297 186.035 221.833C186.755 221.369 187.323 220.705 187.739 219.841C188.155 218.977 188.363 217.953 188.363 216.769C188.363 215.569 188.155 214.545 187.739 213.697C187.323 212.833 186.755 212.169 186.035 211.705C185.331 211.241 184.515 211.009 183.587 211.009C182.691 211.009 181.843 211.233 181.043 211.681C180.243 212.129 179.587 212.777 179.075 213.625C178.579 214.473 178.331 215.521 178.331 216.769ZM182.147 216.769C182.147 216.193 182.267 215.697 182.507 215.281C182.747 214.849 183.067 214.521 183.467 214.297C183.867 214.057 184.307 213.937 184.787 213.937C185.203 213.937 185.603 214.049 185.987 214.273C186.387 214.497 186.715 214.825 186.971 215.257C187.227 215.673 187.355 216.177 187.355 216.769C187.355 217.361 187.227 217.873 186.971 218.305C186.715 218.721 186.387 219.041 185.987 219.265C185.603 219.489 185.203 219.601 184.787 219.601C184.307 219.601 183.867 219.489 183.467 219.265C183.067 219.025 182.747 218.697 182.507 218.281C182.267 217.849 182.147 217.345 182.147 216.769ZM199.407 222.529C200.815 222.529 202.007 222.257 202.983 221.713C203.975 221.169 204.759 220.353 205.335 219.265L202.095 218.473C201.823 218.953 201.455 219.313 200.991 219.553C200.543 219.793 199.999 219.913 199.359 219.913C198.799 219.913 198.327 219.793 197.943 219.553C197.559 219.297 197.271 218.929 197.079 218.449C196.887 217.969 196.791 217.393 196.791 216.721C196.807 215.985 196.903 215.377 197.079 214.897C197.271 214.401 197.551 214.033 197.919 213.793C198.287 213.553 198.743 213.433 199.287 213.433C199.719 213.433 200.095 213.529 200.415 213.721C200.735 213.913 200.983 214.185 201.159 214.537C201.335 214.889 201.423 215.305 201.423 215.785C201.423 215.897 201.391 216.041 201.327 216.217C201.279 216.377 201.215 216.513 201.135 216.625L201.999 215.521H195.183V217.537H205.263C205.295 217.425 205.311 217.289 205.311 217.129C205.311 216.953 205.311 216.777 205.311 216.601C205.311 215.417 205.079 214.409 204.615 213.577C204.151 212.745 203.479 212.113 202.599 211.681C201.719 211.233 200.639 211.009 199.359 211.009C198.079 211.009 196.967 211.241 196.023 211.705C195.095 212.169 194.383 212.833 193.887 213.697C193.391 214.561 193.143 215.585 193.143 216.769C193.143 217.937 193.399 218.953 193.911 219.817C194.423 220.681 195.143 221.353 196.071 221.833C197.015 222.297 198.127 222.529 199.407 222.529ZM211.125 211.249H207.549V222.289H211.125V211.249ZM214.317 214.993L215.877 211.897C215.685 211.609 215.405 211.385 215.037 211.225C214.669 211.065 214.285 210.985 213.885 210.985C213.277 210.985 212.693 211.185 212.133 211.585C211.573 211.985 211.117 212.529 210.765 213.217C210.429 213.905 210.261 214.689 210.261 215.569L211.125 216.841C211.125 216.313 211.197 215.865 211.341 215.497C211.485 215.129 211.693 214.849 211.965 214.657C212.237 214.465 212.549 214.369 212.901 214.369C213.221 214.369 213.485 214.425 213.693 214.537C213.917 214.649 214.125 214.801 214.317 214.993ZM226.099 215.257H238.795V211.609H226.099V215.257ZM236.251 205.489V222.289H240.307V205.489H236.251ZM224.971 205.489V222.289H229.027V205.489H224.971ZM248.663 214.153C249.991 214.153 251.191 213.993 252.263 213.673C253.335 213.353 254.183 212.873 254.807 212.233C255.447 211.593 255.767 210.793 255.767 209.833C255.767 208.969 255.535 208.185 255.071 207.481C254.623 206.777 253.959 206.217 253.079 205.801C252.199 205.385 251.127 205.177 249.863 205.177C248.679 205.177 247.639 205.409 246.743 205.873C245.847 206.321 245.151 206.945 244.655 207.745C244.175 208.529 243.935 209.417 243.935 210.409H247.655C247.655 209.817 247.863 209.337 248.279 208.969C248.695 208.601 249.223 208.417 249.863 208.417C250.295 208.417 250.647 208.489 250.919 208.633C251.191 208.761 251.399 208.953 251.543 209.209C251.687 209.465 251.759 209.753 251.759 210.073C251.759 210.377 251.687 210.665 251.543 210.937C251.399 211.209 251.183 211.449 250.895 211.657C250.623 211.865 250.295 212.033 249.911 212.161C249.543 212.273 249.127 212.329 248.663 212.329V214.153ZM249.671 222.673C251.047 222.673 252.223 222.465 253.199 222.049C254.175 221.617 254.927 221.033 255.455 220.297C255.983 219.545 256.247 218.681 256.247 217.705C256.247 216.857 256.063 216.129 255.695 215.521C255.327 214.913 254.799 214.417 254.111 214.033C253.423 213.633 252.615 213.345 251.687 213.169C250.775 212.977 249.767 212.881 248.663 212.881V214.945C249.271 214.945 249.799 215.001 250.247 215.113C250.695 215.225 251.063 215.393 251.351 215.617C251.655 215.825 251.879 216.073 252.023 216.361C252.167 216.649 252.239 216.969 252.239 217.321C252.239 217.785 252.135 218.177 251.927 218.497C251.719 218.817 251.431 219.049 251.063 219.193C250.711 219.337 250.295 219.409 249.815 219.409C249.367 219.409 248.935 219.321 248.519 219.145C248.119 218.969 247.799 218.697 247.559 218.329C247.319 217.961 247.199 217.505 247.199 216.961H243.215C243.215 217.697 243.359 218.409 243.646 219.097C243.951 219.785 244.375 220.401 244.919 220.945C245.479 221.489 246.159 221.913 246.959 222.217C247.759 222.521 248.663 222.673 249.671 222.673Z" fill="#535353"/>
<path d="M116.058 308.82H117.64C118.228 308.82 118.737 308.736 119.166 308.568C119.605 308.4 119.945 308.153 120.188 307.826C120.431 307.499 120.552 307.107 120.552 306.65C120.552 306.09 120.431 305.633 120.188 305.278C119.945 304.914 119.605 304.643 119.166 304.466C118.737 304.289 118.228 304.2 117.64 304.2H115.12V314H117.78C118.415 314 118.979 313.897 119.474 313.692C119.978 313.477 120.375 313.16 120.664 312.74C120.963 312.311 121.112 311.774 121.112 311.13C121.112 310.682 121.028 310.295 120.86 309.968C120.692 309.641 120.454 309.375 120.146 309.17C119.847 308.955 119.497 308.797 119.096 308.694C118.695 308.591 118.256 308.54 117.78 308.54H116.058V309.198H117.78C118.097 309.198 118.387 309.24 118.648 309.324C118.909 309.399 119.133 309.515 119.32 309.674C119.516 309.833 119.665 310.029 119.768 310.262C119.871 310.495 119.922 310.761 119.922 311.06C119.922 311.461 119.829 311.802 119.642 312.082C119.465 312.362 119.213 312.577 118.886 312.726C118.569 312.875 118.2 312.95 117.78 312.95H116.31V305.25H117.64C118.135 305.25 118.545 305.381 118.872 305.642C119.199 305.894 119.362 306.253 119.362 306.72C119.362 307.028 119.287 307.289 119.138 307.504C118.989 307.719 118.783 307.882 118.522 307.994C118.261 308.106 117.967 308.162 117.64 308.162H116.058V308.82ZM122.297 310.78C122.297 311.424 122.441 312.003 122.731 312.516C123.029 313.02 123.431 313.417 123.935 313.706C124.439 313.995 125.003 314.14 125.629 314.14C126.263 314.14 126.828 313.995 127.323 313.706C127.827 313.417 128.223 313.02 128.513 312.516C128.811 312.003 128.961 311.424 128.961 310.78C128.961 310.127 128.811 309.548 128.513 309.044C128.223 308.54 127.827 308.143 127.323 307.854C126.828 307.565 126.263 307.42 125.629 307.42C125.003 307.42 124.439 307.565 123.935 307.854C123.431 308.143 123.029 308.54 122.731 309.044C122.441 309.548 122.297 310.127 122.297 310.78ZM123.431 310.78C123.431 310.332 123.524 309.935 123.711 309.59C123.907 309.235 124.168 308.96 124.495 308.764C124.831 308.568 125.209 308.47 125.629 308.47C126.049 308.47 126.422 308.568 126.749 308.764C127.085 308.96 127.346 309.235 127.533 309.59C127.729 309.935 127.827 310.332 127.827 310.78C127.827 311.228 127.729 311.625 127.533 311.97C127.346 312.315 127.085 312.591 126.749 312.796C126.422 312.992 126.049 313.09 125.629 313.09C125.209 313.09 124.831 312.992 124.495 312.796C124.168 312.591 123.907 312.315 123.711 311.97C123.524 311.625 123.431 311.228 123.431 310.78ZM135.329 303.08V314H136.449V303.08H135.329ZM129.939 310.78C129.939 311.471 130.084 312.068 130.373 312.572C130.663 313.076 131.05 313.463 131.535 313.734C132.021 314.005 132.553 314.14 133.131 314.14C133.673 314.14 134.144 314.005 134.545 313.734C134.947 313.463 135.259 313.076 135.483 312.572C135.717 312.068 135.833 311.471 135.833 310.78C135.833 310.08 135.717 309.483 135.483 308.988C135.259 308.484 134.947 308.097 134.545 307.826C134.144 307.555 133.673 307.42 133.131 307.42C132.553 307.42 132.021 307.555 131.535 307.826C131.05 308.097 130.663 308.484 130.373 308.988C130.084 309.483 129.939 310.08 129.939 310.78ZM131.073 310.78C131.073 310.285 131.171 309.865 131.367 309.52C131.573 309.175 131.843 308.913 132.179 308.736C132.515 308.559 132.879 308.47 133.271 308.47C133.598 308.47 133.92 308.559 134.237 308.736C134.555 308.913 134.816 309.175 135.021 309.52C135.227 309.865 135.329 310.285 135.329 310.78C135.329 311.275 135.227 311.695 135.021 312.04C134.816 312.385 134.555 312.647 134.237 312.824C133.92 313.001 133.598 313.09 133.271 313.09C132.879 313.09 132.515 313.001 132.179 312.824C131.843 312.647 131.573 312.385 131.367 312.04C131.171 311.695 131.073 311.275 131.073 310.78ZM143.594 307.56H142.334L140.346 312.544L140.808 312.6L138.764 307.56H137.434L139.898 313.09L138.134 317.08H139.394L143.594 307.56Z" fill="#535353"/>
<path d="M110.184 277.8V289H117.384V286.68H112.888V277.8H110.184ZM120.269 286.696C120.269 286.515 120.312 286.365 120.397 286.248C120.482 286.12 120.61 286.024 120.781 285.96C120.952 285.896 121.181 285.864 121.469 285.864C121.842 285.864 122.194 285.917 122.525 286.024C122.866 286.12 123.165 286.264 123.421 286.456V285.384C123.293 285.245 123.101 285.112 122.845 284.984C122.589 284.856 122.28 284.749 121.917 284.664C121.565 284.579 121.165 284.536 120.717 284.536C119.8 284.536 119.09 284.744 118.589 285.16C118.088 285.565 117.837 286.12 117.837 286.824C117.837 287.325 117.954 287.752 118.189 288.104C118.434 288.456 118.754 288.723 119.149 288.904C119.554 289.075 119.992 289.16 120.461 289.16C120.93 289.16 121.368 289.08 121.773 288.92C122.178 288.749 122.509 288.504 122.765 288.184C123.021 287.853 123.149 287.453 123.149 286.984L122.893 286.024C122.893 286.365 122.818 286.653 122.669 286.888C122.52 287.123 122.328 287.299 122.093 287.416C121.858 287.533 121.602 287.592 121.325 287.592C121.133 287.592 120.957 287.56 120.797 287.496C120.637 287.421 120.509 287.32 120.413 287.192C120.317 287.053 120.269 286.888 120.269 286.696ZM119.197 283.896C119.304 283.832 119.474 283.752 119.709 283.656C119.944 283.549 120.216 283.459 120.525 283.384C120.845 283.309 121.17 283.272 121.501 283.272C121.725 283.272 121.922 283.293 122.093 283.336C122.274 283.379 122.424 283.448 122.541 283.544C122.658 283.64 122.744 283.757 122.797 283.896C122.861 284.024 122.893 284.179 122.893 284.36V289H125.213V283.816C125.213 283.304 125.064 282.872 124.765 282.52C124.466 282.168 124.061 281.901 123.549 281.72C123.037 281.528 122.456 281.432 121.805 281.432C121.112 281.432 120.472 281.523 119.885 281.704C119.298 281.885 118.797 282.077 118.381 282.28L119.197 283.896ZM129.422 276.52H127.006V289H129.422V276.52ZM135.438 285.32C135.438 284.488 135.267 283.789 134.926 283.224C134.595 282.659 134.163 282.227 133.63 281.928C133.107 281.629 132.542 281.48 131.934 281.48C131.326 281.48 130.782 281.635 130.302 281.944C129.822 282.253 129.443 282.696 129.166 283.272C128.889 283.837 128.75 284.52 128.75 285.32C128.75 286.109 128.889 286.792 129.166 287.368C129.443 287.944 129.822 288.387 130.302 288.696C130.782 289.005 131.326 289.16 131.934 289.16C132.542 289.16 133.107 289.011 133.63 288.712C134.163 288.413 134.595 287.981 134.926 287.416C135.267 286.84 135.438 286.141 135.438 285.32ZM132.894 285.32C132.894 285.704 132.814 286.04 132.654 286.328C132.494 286.605 132.281 286.824 132.014 286.984C131.747 287.133 131.454 287.208 131.134 287.208C130.857 287.208 130.585 287.133 130.318 286.984C130.062 286.835 129.849 286.621 129.678 286.344C129.507 286.056 129.422 285.715 129.422 285.32C129.422 284.925 129.507 284.589 129.678 284.312C129.849 284.024 130.062 283.805 130.318 283.656C130.585 283.507 130.857 283.432 131.134 283.432C131.454 283.432 131.747 283.512 132.014 283.672C132.281 283.821 132.494 284.04 132.654 284.328C132.814 284.605 132.894 284.936 132.894 285.32ZM140.641 289.16C141.58 289.16 142.374 288.979 143.025 288.616C143.686 288.253 144.209 287.709 144.593 286.984L142.433 286.456C142.252 286.776 142.006 287.016 141.697 287.176C141.398 287.336 141.036 287.416 140.609 287.416C140.236 287.416 139.921 287.336 139.665 287.176C139.409 287.005 139.217 286.76 139.089 286.44C138.961 286.12 138.897 285.736 138.897 285.288C138.908 284.797 138.972 284.392 139.089 284.072C139.217 283.741 139.404 283.496 139.649 283.336C139.894 283.176 140.198 283.096 140.561 283.096C140.849 283.096 141.1 283.16 141.313 283.288C141.526 283.416 141.692 283.597 141.809 283.832C141.926 284.067 141.985 284.344 141.985 284.664C141.985 284.739 141.964 284.835 141.921 284.952C141.889 285.059 141.846 285.149 141.793 285.224L142.369 284.488H137.825V285.832H144.545C144.566 285.757 144.577 285.667 144.577 285.56C144.577 285.443 144.577 285.325 144.577 285.208C144.577 284.419 144.422 283.747 144.113 283.192C143.804 282.637 143.356 282.216 142.769 281.928C142.182 281.629 141.462 281.48 140.609 281.48C139.756 281.48 139.014 281.635 138.385 281.944C137.766 282.253 137.292 282.696 136.961 283.272C136.63 283.848 136.465 284.531 136.465 285.32C136.465 286.099 136.636 286.776 136.977 287.352C137.318 287.928 137.798 288.376 138.417 288.696C139.046 289.005 139.788 289.16 140.641 289.16ZM146.069 276.52V289H148.501V276.52H146.069Z" fill="#535353"/>
<path d="M108.646 332.34H110.68C111.436 332.34 112.09 332.232 112.642 332.016C113.206 331.8 113.644 331.482 113.956 331.062C114.268 330.642 114.424 330.138 114.424 329.55C114.424 328.83 114.268 328.242 113.956 327.786C113.644 327.318 113.206 326.97 112.642 326.742C112.09 326.514 111.436 326.4 110.68 326.4H107.44V339H110.86C111.676 339 112.402 338.868 113.038 338.604C113.686 338.328 114.196 337.92 114.568 337.38C114.952 336.828 115.144 336.138 115.144 335.31C115.144 334.734 115.036 334.236 114.82 333.816C114.604 333.396 114.298 333.054 113.902 332.79C113.518 332.514 113.068 332.31 112.552 332.178C112.036 332.046 111.472 331.98 110.86 331.98H108.646V332.826H110.86C111.268 332.826 111.64 332.88 111.976 332.988C112.312 333.084 112.6 333.234 112.84 333.438C113.092 333.642 113.284 333.894 113.416 334.194C113.548 334.494 113.614 334.836 113.614 335.22C113.614 335.736 113.494 336.174 113.254 336.534C113.026 336.894 112.702 337.17 112.282 337.362C111.874 337.554 111.4 337.65 110.86 337.65H108.97V327.75H110.68C111.316 327.75 111.844 327.918 112.264 328.254C112.684 328.578 112.894 329.04 112.894 329.64C112.894 330.036 112.798 330.372 112.606 330.648C112.414 330.924 112.15 331.134 111.814 331.278C111.478 331.422 111.1 331.494 110.68 331.494H108.646V332.34ZM118.827 335.76V330.72H117.387V335.94C117.387 336.924 117.645 337.71 118.161 338.298C118.677 338.886 119.367 339.18 120.231 339.18C120.783 339.18 121.263 339.06 121.671 338.82C122.079 338.568 122.421 338.196 122.697 337.704V339H124.137V330.72H122.697V335.76C122.697 336.168 122.607 336.528 122.427 336.84C122.259 337.152 122.013 337.398 121.689 337.578C121.377 337.746 121.011 337.83 120.591 337.83C120.015 337.83 119.577 337.65 119.277 337.29C118.977 336.93 118.827 336.42 118.827 335.76ZM125.584 330.72V332.07H129.724V330.72H125.584ZM126.934 327.84V339H128.374V327.84H126.934ZM129.908 330.72V332.07H134.048V330.72H129.908ZM131.258 327.84V339H132.698V327.84H131.258ZM134.773 334.86C134.773 335.688 134.959 336.432 135.331 337.092C135.715 337.74 136.231 338.25 136.879 338.622C137.527 338.994 138.253 339.18 139.057 339.18C139.873 339.18 140.599 338.994 141.235 338.622C141.883 338.25 142.393 337.74 142.765 337.092C143.149 336.432 143.341 335.688 143.341 334.86C143.341 334.02 143.149 333.276 142.765 332.628C142.393 331.98 141.883 331.47 141.235 331.098C140.599 330.726 139.873 330.54 139.057 330.54C138.253 330.54 137.527 330.726 136.879 331.098C136.231 331.47 135.715 331.98 135.331 332.628C134.959 333.276 134.773 334.02 134.773 334.86ZM136.231 334.86C136.231 334.284 136.351 333.774 136.591 333.33C136.843 332.874 137.179 332.52 137.599 332.268C138.031 332.016 138.517 331.89 139.057 331.89C139.597 331.89 140.077 332.016 140.497 332.268C140.929 332.52 141.265 332.874 141.505 333.33C141.757 333.774 141.883 334.284 141.883 334.86C141.883 335.436 141.757 335.946 141.505 336.39C141.265 336.834 140.929 337.188 140.497 337.452C140.077 337.704 139.597 337.83 139.057 337.83C138.517 337.83 138.031 337.704 137.599 337.452C137.179 337.188 136.843 336.834 136.591 336.39C136.351 335.946 136.231 335.436 136.231 334.86ZM150.629 333.96V339H152.069V333.78C152.069 332.784 151.811 331.998 151.295 331.422C150.791 330.834 150.101 330.54 149.225 330.54C148.685 330.54 148.205 330.66 147.785 330.9C147.377 331.14 147.035 331.512 146.759 332.016V330.72H145.319V339H146.759V333.96C146.759 333.552 146.843 333.192 147.011 332.88C147.191 332.568 147.437 332.328 147.749 332.16C148.073 331.98 148.445 331.89 148.865 331.89C149.441 331.89 149.879 332.064 150.179 332.412C150.479 332.76 150.629 333.276 150.629 333.96Z" fill="#535353"/>
<path d="M225.408 273.2H226.164L224.484 283H223.728L225.408 273.2ZM231.371 278.856C231.417 278.548 231.413 278.263 231.357 278.002C231.31 277.731 231.198 277.517 231.021 277.358C230.843 277.199 230.582 277.12 230.237 277.12C229.873 277.12 229.537 277.204 229.229 277.372C228.921 277.54 228.664 277.769 228.459 278.058C228.263 278.338 228.137 278.651 228.081 278.996L227.367 283H226.639L227.759 276.56H228.487L228.263 277.848C228.477 277.428 228.776 277.087 229.159 276.826C229.541 276.555 229.975 276.42 230.461 276.42C230.918 276.42 231.273 276.532 231.525 276.756C231.786 276.971 231.959 277.255 232.043 277.61C232.136 277.965 232.155 278.352 232.099 278.772L231.371 283H230.671L231.371 278.856ZM233.628 286.08H232.9L234.552 276.56H235.252L235 278.002C235.29 277.545 235.654 277.167 236.092 276.868C236.531 276.569 237.026 276.42 237.576 276.42C238.174 276.42 238.668 276.579 239.06 276.896C239.462 277.204 239.746 277.615 239.914 278.128C240.082 278.632 240.124 279.183 240.04 279.78C239.947 280.405 239.732 280.975 239.396 281.488C239.06 281.992 238.64 282.393 238.136 282.692C237.632 282.991 237.082 283.14 236.484 283.14C235.906 283.131 235.448 282.958 235.112 282.622C234.776 282.286 234.548 281.866 234.426 281.362L233.628 286.08ZM239.326 279.78C239.392 279.304 239.359 278.865 239.228 278.464C239.107 278.063 238.892 277.741 238.584 277.498C238.276 277.246 237.884 277.12 237.408 277.12C236.998 277.12 236.61 277.232 236.246 277.456C235.882 277.671 235.57 277.96 235.308 278.324C235.047 278.679 234.86 279.071 234.748 279.5L234.678 279.962C234.641 280.373 234.683 280.765 234.804 281.138C234.935 281.511 235.136 281.819 235.406 282.062C235.686 282.305 236.032 282.431 236.442 282.44C236.918 282.449 237.362 282.337 237.772 282.104C238.183 281.861 238.524 281.539 238.794 281.138C239.074 280.727 239.252 280.275 239.326 279.78ZM242.183 280.648C242.145 280.965 242.15 281.259 242.197 281.53C242.243 281.801 242.355 282.02 242.533 282.188C242.719 282.356 242.985 282.44 243.331 282.44C243.695 282.44 244.031 282.356 244.339 282.188C244.647 282.011 244.899 281.782 245.095 281.502C245.3 281.213 245.431 280.9 245.487 280.564L246.187 276.56H246.915L245.795 283H245.067L245.291 281.74C245.057 282.16 244.754 282.501 244.381 282.762C244.017 283.014 243.587 283.14 243.093 283.14C242.635 283.14 242.276 283.028 242.015 282.804C241.753 282.58 241.581 282.286 241.497 281.922C241.413 281.558 241.399 281.161 241.455 280.732L242.183 276.56H242.883L242.183 280.648ZM248.108 276.56H249.102L249.48 274.32H250.208L249.816 276.56H250.852L250.74 277.246H249.704L248.696 283H247.996L248.976 277.246H247.968L248.108 276.56ZM255.23 286.08H254.502L256.154 276.56H256.854L256.602 278.002C256.891 277.545 257.255 277.167 257.694 276.868C258.133 276.569 258.627 276.42 259.178 276.42C259.775 276.42 260.27 276.579 260.662 276.896C261.063 277.204 261.348 277.615 261.516 278.128C261.684 278.632 261.726 279.183 261.642 279.78C261.549 280.405 261.334 280.975 260.998 281.488C260.662 281.992 260.242 282.393 259.738 282.692C259.234 282.991 258.683 283.14 258.086 283.14C257.507 283.131 257.05 282.958 256.714 282.622C256.378 282.286 256.149 281.866 256.028 281.362L255.23 286.08ZM260.928 279.78C260.993 279.304 260.961 278.865 260.83 278.464C260.709 278.063 260.494 277.741 260.186 277.498C259.878 277.246 259.486 277.12 259.01 277.12C258.599 277.12 258.212 277.232 257.848 277.456C257.484 277.671 257.171 277.96 256.91 278.324C256.649 278.679 256.462 279.071 256.35 279.5L256.28 279.962C256.243 280.373 256.285 280.765 256.406 281.138C256.537 281.511 256.737 281.819 257.008 282.062C257.288 282.305 257.633 282.431 258.044 282.44C258.52 282.449 258.963 282.337 259.374 282.104C259.785 281.861 260.125 281.539 260.396 281.138C260.676 280.727 260.853 280.275 260.928 279.78ZM264.54 272.08H265.268L263.392 283H262.692L264.54 272.08ZM265.522 279.78C265.615 279.155 265.83 278.59 266.166 278.086C266.511 277.573 266.936 277.167 267.44 276.868C267.944 276.569 268.495 276.42 269.092 276.42C269.68 276.429 270.142 276.611 270.478 276.966C270.823 277.311 271.052 277.741 271.164 278.254L271.458 276.56H272.144L271.024 283H270.366L270.618 281.488C270.338 281.964 269.974 282.361 269.526 282.678C269.078 282.986 268.569 283.14 268 283.14C267.403 283.14 266.903 282.986 266.502 282.678C266.11 282.361 265.825 281.95 265.648 281.446C265.48 280.933 265.438 280.377 265.522 279.78ZM266.264 279.78C266.199 280.256 266.227 280.699 266.348 281.11C266.479 281.511 266.693 281.833 266.992 282.076C267.3 282.319 267.692 282.44 268.168 282.44C268.607 282.44 269.017 282.319 269.4 282.076C269.783 281.824 270.105 281.497 270.366 281.096C270.637 280.685 270.809 280.247 270.884 279.78C270.949 279.341 270.921 278.921 270.8 278.52C270.679 278.119 270.473 277.787 270.184 277.526C269.904 277.265 269.549 277.129 269.12 277.12C268.644 277.111 268.201 277.227 267.79 277.47C267.389 277.703 267.053 278.021 266.782 278.422C266.511 278.823 266.339 279.276 266.264 279.78ZM273.838 279.78C273.773 280.247 273.815 280.681 273.964 281.082C274.113 281.483 274.351 281.81 274.678 282.062C275.014 282.305 275.425 282.431 275.91 282.44C276.405 282.44 276.853 282.337 277.254 282.132C277.655 281.917 277.982 281.679 278.234 281.418L278.094 282.328C277.823 282.561 277.492 282.757 277.1 282.916C276.708 283.065 276.288 283.14 275.84 283.14C275.224 283.14 274.697 282.986 274.258 282.678C273.819 282.361 273.497 281.945 273.292 281.432C273.096 280.919 273.035 280.368 273.11 279.78C273.194 279.164 273.409 278.604 273.754 278.1C274.109 277.587 274.552 277.181 275.084 276.882C275.625 276.574 276.209 276.42 276.834 276.42C277.254 276.42 277.641 276.495 277.996 276.644C278.36 276.793 278.654 276.994 278.878 277.246L278.738 278.156C278.57 277.857 278.318 277.61 277.982 277.414C277.646 277.218 277.245 277.12 276.778 277.12C276.283 277.12 275.826 277.241 275.406 277.484C274.995 277.727 274.65 278.049 274.37 278.45C274.09 278.851 273.913 279.295 273.838 279.78ZM282.207 283.14C281.442 283.14 280.821 282.879 280.345 282.356C279.879 281.824 279.645 281.11 279.645 280.214C279.645 279.719 279.739 279.248 279.925 278.8C280.112 278.343 280.364 277.937 280.681 277.582C281.008 277.227 281.386 276.947 281.815 276.742C282.254 276.527 282.716 276.42 283.201 276.42C283.948 276.42 284.55 276.672 285.007 277.176C285.465 277.671 285.693 278.338 285.693 279.178C285.693 279.299 285.679 279.439 285.651 279.598C285.623 279.757 285.586 279.878 285.539 279.962H280.387C280.378 280.027 280.373 280.097 280.373 280.172C280.373 280.844 280.537 281.395 280.863 281.824C281.199 282.244 281.675 282.454 282.291 282.454C282.786 282.454 283.234 282.337 283.635 282.104C284.037 281.871 284.382 281.544 284.671 281.124L285.245 281.502C284.881 282.006 284.443 282.407 283.929 282.706C283.425 282.995 282.851 283.14 282.207 283.14ZM283.145 277.064C282.716 277.064 282.319 277.167 281.955 277.372C281.601 277.577 281.293 277.853 281.031 278.198C280.779 278.534 280.597 278.912 280.485 279.332H284.923C284.942 279.229 284.951 279.131 284.951 279.038C284.951 278.459 284.788 277.988 284.461 277.624C284.144 277.251 283.705 277.064 283.145 277.064ZM291.349 278.856C291.387 278.548 291.382 278.263 291.335 278.002C291.289 277.741 291.177 277.531 290.999 277.372C290.822 277.213 290.561 277.129 290.215 277.12C289.842 277.111 289.506 277.199 289.207 277.386C288.909 277.563 288.657 277.801 288.451 278.1C288.246 278.389 288.106 278.697 288.031 279.024L287.345 283H286.617L288.493 272.08H289.221L288.227 277.834C288.47 277.423 288.778 277.087 289.151 276.826C289.525 276.555 289.954 276.42 290.439 276.42C290.897 276.42 291.251 276.527 291.503 276.742C291.765 276.957 291.937 277.241 292.021 277.596C292.115 277.951 292.133 278.343 292.077 278.772L291.349 283H290.649L291.349 278.856ZM293.579 279.78C293.663 279.164 293.878 278.604 294.223 278.1C294.578 277.587 295.016 277.181 295.539 276.882C296.071 276.574 296.65 276.42 297.275 276.42C297.9 276.42 298.428 276.579 298.857 276.896C299.296 277.204 299.618 277.615 299.823 278.128C300.028 278.632 300.089 279.183 300.005 279.78C299.921 280.396 299.702 280.961 299.347 281.474C299.002 281.978 298.563 282.384 298.031 282.692C297.499 282.991 296.92 283.14 296.295 283.14C295.679 283.14 295.152 282.986 294.713 282.678C294.284 282.361 293.966 281.945 293.761 281.432C293.565 280.919 293.504 280.368 293.579 279.78ZM294.307 279.78C294.242 280.237 294.279 280.671 294.419 281.082C294.568 281.483 294.806 281.81 295.133 282.062C295.46 282.314 295.866 282.44 296.351 282.44C296.846 282.44 297.298 282.319 297.709 282.076C298.129 281.833 298.474 281.511 298.745 281.11C299.025 280.709 299.202 280.265 299.277 279.78C299.342 279.313 299.3 278.879 299.151 278.478C299.011 278.077 298.773 277.75 298.437 277.498C298.11 277.246 297.704 277.12 297.219 277.12C296.724 277.12 296.267 277.241 295.847 277.484C295.436 277.727 295.096 278.049 294.825 278.45C294.554 278.851 294.382 279.295 294.307 279.78ZM302.808 272.08H303.536L301.66 283H300.96L302.808 272.08ZM303.79 279.78C303.883 279.155 304.098 278.59 304.434 278.086C304.779 277.573 305.204 277.167 305.708 276.868C306.212 276.569 306.762 276.42 307.36 276.42C307.929 276.42 308.382 276.588 308.718 276.924C309.054 277.26 309.287 277.671 309.418 278.156L310.44 272.08H311.182L309.292 283H308.592L308.83 281.586C308.54 282.043 308.176 282.417 307.738 282.706C307.308 282.995 306.818 283.14 306.268 283.14C305.67 283.14 305.171 282.986 304.77 282.678C304.378 282.361 304.093 281.95 303.916 281.446C303.748 280.933 303.706 280.377 303.79 279.78ZM304.532 279.78C304.466 280.256 304.494 280.695 304.616 281.096C304.746 281.497 304.961 281.824 305.26 282.076C305.568 282.319 305.96 282.44 306.436 282.44C306.837 282.44 307.215 282.333 307.57 282.118C307.934 281.903 308.246 281.623 308.508 281.278C308.778 280.923 308.97 280.536 309.082 280.116L309.18 279.556C309.208 279.145 309.152 278.758 309.012 278.394C308.881 278.021 308.676 277.717 308.396 277.484C308.125 277.251 307.789 277.129 307.388 277.12C306.912 277.111 306.468 277.227 306.058 277.47C305.656 277.703 305.32 278.021 305.05 278.422C304.779 278.823 304.606 279.276 304.532 279.78ZM313.94 283.14C313.174 283.14 312.554 282.879 312.078 282.356C311.611 281.824 311.378 281.11 311.378 280.214C311.378 279.719 311.471 279.248 311.658 278.8C311.844 278.343 312.096 277.937 312.414 277.582C312.74 277.227 313.118 276.947 313.548 276.742C313.986 276.527 314.448 276.42 314.934 276.42C315.68 276.42 316.282 276.672 316.74 277.176C317.197 277.671 317.426 278.338 317.426 279.178C317.426 279.299 317.412 279.439 317.384 279.598C317.356 279.757 317.318 279.878 317.272 279.962H312.12C312.11 280.027 312.106 280.097 312.106 280.172C312.106 280.844 312.269 281.395 312.596 281.824C312.932 282.244 313.408 282.454 314.024 282.454C314.518 282.454 314.966 282.337 315.368 282.104C315.769 281.871 316.114 281.544 316.404 281.124L316.978 281.502C316.614 282.006 316.175 282.407 315.662 282.706C315.158 282.995 314.584 283.14 313.94 283.14ZM314.878 277.064C314.448 277.064 314.052 277.167 313.688 277.372C313.333 277.577 313.025 277.853 312.764 278.198C312.512 278.534 312.33 278.912 312.218 279.332H316.656C316.674 279.229 316.684 279.131 316.684 279.038C316.684 278.459 316.52 277.988 316.194 277.624C315.876 277.251 315.438 277.064 314.878 277.064ZM320.198 276.56L320.058 277.386C320.244 277.106 320.468 276.877 320.73 276.7C320.991 276.513 321.28 276.42 321.598 276.42C321.794 276.42 321.971 276.457 322.13 276.532C322.298 276.597 322.456 276.695 322.606 276.826L322.13 277.4C322.008 277.316 321.892 277.246 321.78 277.19C321.668 277.134 321.532 277.106 321.374 277.106C321.075 277.097 320.823 277.176 320.618 277.344C320.412 277.503 320.244 277.713 320.114 277.974C319.983 278.226 319.885 278.492 319.82 278.772L319.078 283H318.35L319.47 276.56H320.198ZM322.283 282.664C322.283 282.524 322.33 282.403 322.423 282.3C322.526 282.188 322.647 282.132 322.787 282.132C322.927 282.132 323.049 282.188 323.151 282.3C323.263 282.403 323.319 282.524 323.319 282.664C323.319 282.804 323.263 282.921 323.151 283.014C323.049 283.117 322.927 283.168 322.787 283.168C322.647 283.168 322.526 283.117 322.423 283.014C322.33 282.921 322.283 282.804 322.283 282.664ZM326.139 282.664C326.139 282.524 326.186 282.403 326.279 282.3C326.382 282.188 326.503 282.132 326.643 282.132C326.783 282.132 326.904 282.188 327.007 282.3C327.119 282.403 327.175 282.524 327.175 282.664C327.175 282.804 327.119 282.921 327.007 283.014C326.904 283.117 326.783 283.168 326.643 283.168C326.503 283.168 326.382 283.117 326.279 283.014C326.186 282.921 326.139 282.804 326.139 282.664ZM329.994 282.664C329.994 282.524 330.041 282.403 330.134 282.3C330.237 282.188 330.358 282.132 330.498 282.132C330.638 282.132 330.76 282.188 330.862 282.3C330.974 282.403 331.03 282.524 331.03 282.664C331.03 282.804 330.974 282.921 330.862 283.014C330.76 283.117 330.638 283.168 330.498 283.168C330.358 283.168 330.237 283.117 330.134 283.014C330.041 282.921 329.994 282.804 329.994 282.664Z" fill="#414618"/>
<path d="M224.092 291.2V301H225.772V291.2H224.092ZM231.965 297.08V301H233.519V296.898C233.519 296.133 233.328 295.531 232.945 295.092C232.563 294.644 232.007 294.42 231.279 294.42C230.841 294.42 230.458 294.513 230.131 294.7C229.814 294.887 229.553 295.171 229.347 295.554V294.56H227.821V301H229.347V297.08C229.347 296.791 229.403 296.539 229.515 296.324C229.637 296.1 229.805 295.932 230.019 295.82C230.234 295.699 230.486 295.638 230.775 295.638C231.177 295.638 231.475 295.759 231.671 296.002C231.867 296.245 231.965 296.604 231.965 297.08ZM236.92 304.08V294.56H235.394V304.08H236.92ZM242.254 297.78C242.254 297.052 242.11 296.441 241.82 295.946C241.531 295.442 241.148 295.055 240.672 294.784C240.196 294.513 239.678 294.378 239.118 294.378C238.577 294.378 238.101 294.518 237.69 294.798C237.289 295.078 236.976 295.47 236.752 295.974C236.528 296.478 236.416 297.08 236.416 297.78C236.416 298.471 236.528 299.073 236.752 299.586C236.976 300.09 237.289 300.482 237.69 300.762C238.101 301.033 238.577 301.168 239.118 301.168C239.678 301.168 240.196 301.037 240.672 300.776C241.148 300.505 241.531 300.118 241.82 299.614C242.11 299.101 242.254 298.489 242.254 297.78ZM240.686 297.78C240.686 298.209 240.598 298.573 240.42 298.872C240.243 299.171 240.01 299.399 239.72 299.558C239.431 299.717 239.109 299.796 238.754 299.796C238.456 299.796 238.166 299.721 237.886 299.572C237.606 299.413 237.373 299.185 237.186 298.886C237.009 298.587 236.92 298.219 236.92 297.78C236.92 297.341 237.009 296.973 237.186 296.674C237.373 296.375 237.606 296.151 237.886 296.002C238.166 295.843 238.456 295.764 238.754 295.764C239.109 295.764 239.431 295.843 239.72 296.002C240.01 296.151 240.243 296.38 240.42 296.688C240.598 296.987 240.686 297.351 240.686 297.78ZM245.249 298.48V294.56H243.695V298.648C243.695 299.413 243.886 300.02 244.269 300.468C244.661 300.916 245.216 301.14 245.935 301.14C246.383 301.14 246.765 301.047 247.083 300.86C247.409 300.664 247.675 300.379 247.881 300.006V301H249.393V294.56H247.881V298.48C247.881 298.769 247.82 299.021 247.699 299.236C247.577 299.451 247.409 299.619 247.195 299.74C246.98 299.861 246.733 299.922 246.453 299.922C246.042 299.922 245.739 299.796 245.543 299.544C245.347 299.292 245.249 298.937 245.249 298.48ZM250.427 294.56V295.89H254.081V294.56H250.427ZM251.519 292.32V301H253.003V292.32H251.519ZM259.265 291.998C259.265 292.25 259.359 292.469 259.545 292.656C259.741 292.833 259.965 292.922 260.217 292.922C260.488 292.922 260.717 292.833 260.903 292.656C261.09 292.469 261.183 292.25 261.183 291.998C261.183 291.737 261.09 291.517 260.903 291.34C260.717 291.163 260.488 291.074 260.217 291.074C259.965 291.074 259.741 291.163 259.545 291.34C259.359 291.517 259.265 291.737 259.265 291.998ZM259.475 294.56V301H260.973V294.56H259.475ZM267.198 297.08V301H268.752V296.898C268.752 296.133 268.561 295.531 268.178 295.092C267.795 294.644 267.24 294.42 266.512 294.42C266.073 294.42 265.691 294.513 265.364 294.7C265.047 294.887 264.785 295.171 264.58 295.554V294.56H263.054V301H264.58V297.08C264.58 296.791 264.636 296.539 264.748 296.324C264.869 296.1 265.037 295.932 265.252 295.82C265.467 295.699 265.719 295.638 266.008 295.638C266.409 295.638 266.708 295.759 266.904 296.002C267.1 296.245 267.198 296.604 267.198 297.08ZM270.977 298.872L270.095 299.768C270.281 300.011 270.515 300.244 270.795 300.468C271.075 300.683 271.397 300.86 271.761 301C272.125 301.131 272.531 301.196 272.979 301.196C273.679 301.196 274.234 301.014 274.645 300.65C275.065 300.277 275.275 299.787 275.275 299.18C275.275 298.788 275.186 298.471 275.009 298.228C274.831 297.985 274.593 297.78 274.295 297.612C273.996 297.444 273.665 297.29 273.301 297.15C273.039 297.047 272.801 296.949 272.587 296.856C272.381 296.763 272.213 296.66 272.083 296.548C271.961 296.427 271.901 296.291 271.901 296.142C271.901 295.965 271.971 295.829 272.111 295.736C272.251 295.643 272.433 295.596 272.657 295.596C272.974 295.596 273.282 295.675 273.581 295.834C273.879 295.993 274.131 296.198 274.337 296.45L275.177 295.554C274.999 295.339 274.785 295.148 274.533 294.98C274.281 294.812 273.996 294.677 273.679 294.574C273.371 294.471 273.039 294.42 272.685 294.42C272.293 294.42 271.924 294.485 271.579 294.616C271.243 294.737 270.972 294.929 270.767 295.19C270.571 295.451 270.473 295.778 270.473 296.17C270.473 296.553 270.561 296.87 270.739 297.122C270.925 297.374 271.159 297.579 271.439 297.738C271.728 297.887 272.017 298.018 272.307 298.13C272.596 298.233 272.848 298.335 273.063 298.438C273.277 298.531 273.445 298.648 273.567 298.788C273.688 298.919 273.749 299.077 273.749 299.264C273.749 299.479 273.669 299.647 273.511 299.768C273.361 299.889 273.151 299.95 272.881 299.95C272.666 299.95 272.451 299.908 272.237 299.824C272.022 299.74 271.812 299.619 271.607 299.46C271.401 299.301 271.191 299.105 270.977 298.872ZM275.72 294.56V295.89H279.374V294.56H275.72ZM276.812 292.32V301H278.296V292.32H276.812ZM281.915 294.56H280.417V301H281.915V294.56ZM283.833 296.17L284.575 294.896C284.426 294.719 284.249 294.593 284.043 294.518C283.838 294.443 283.619 294.406 283.385 294.406C283.059 294.406 282.741 294.527 282.433 294.77C282.135 295.003 281.887 295.321 281.691 295.722C281.505 296.114 281.411 296.567 281.411 297.08L281.915 297.374C281.915 297.066 281.948 296.8 282.013 296.576C282.088 296.343 282.205 296.161 282.363 296.03C282.522 295.899 282.727 295.834 282.979 295.834C283.166 295.834 283.32 295.862 283.441 295.918C283.572 295.974 283.703 296.058 283.833 296.17ZM287.166 298.48V294.56H285.612V298.648C285.612 299.413 285.804 300.02 286.186 300.468C286.578 300.916 287.134 301.14 287.852 301.14C288.3 301.14 288.683 301.047 289 300.86C289.327 300.664 289.593 300.379 289.798 300.006V301H291.31V294.56H289.798V298.48C289.798 298.769 289.738 299.021 289.616 299.236C289.495 299.451 289.327 299.619 289.112 299.74C288.898 299.861 288.65 299.922 288.37 299.922C287.96 299.922 287.656 299.796 287.46 299.544C287.264 299.292 287.166 298.937 287.166 298.48ZM294.249 297.78C294.249 297.379 294.338 297.024 294.515 296.716C294.693 296.408 294.931 296.165 295.229 295.988C295.537 295.811 295.878 295.722 296.251 295.722C296.55 295.722 296.839 295.769 297.119 295.862C297.399 295.955 297.647 296.086 297.861 296.254C298.085 296.413 298.249 296.599 298.351 296.814V295.134C298.127 294.919 297.824 294.747 297.441 294.616C297.059 294.485 296.639 294.42 296.181 294.42C295.528 294.42 294.935 294.565 294.403 294.854C293.881 295.134 293.465 295.526 293.157 296.03C292.849 296.534 292.695 297.117 292.695 297.78C292.695 298.433 292.849 299.017 293.157 299.53C293.465 300.034 293.881 300.431 294.403 300.72C294.935 301 295.528 301.14 296.181 301.14C296.639 301.14 297.059 301.075 297.441 300.944C297.824 300.813 298.127 300.636 298.351 300.412V298.746C298.249 298.951 298.09 299.138 297.875 299.306C297.661 299.465 297.413 299.595 297.133 299.698C296.863 299.791 296.569 299.838 296.251 299.838C295.878 299.838 295.537 299.749 295.229 299.572C294.931 299.395 294.693 299.152 294.515 298.844C294.338 298.536 294.249 298.181 294.249 297.78ZM299.127 294.56V295.89H302.781V294.56H299.127ZM300.219 292.32V301H301.703V292.32H300.219ZM303.767 291.998C303.767 292.25 303.861 292.469 304.047 292.656C304.243 292.833 304.467 292.922 304.719 292.922C304.99 292.922 305.219 292.833 305.405 292.656C305.592 292.469 305.685 292.25 305.685 291.998C305.685 291.737 305.592 291.517 305.405 291.34C305.219 291.163 304.99 291.074 304.719 291.074C304.467 291.074 304.243 291.163 304.047 291.34C303.861 291.517 303.767 291.737 303.767 291.998ZM303.977 294.56V301H305.475V294.56H303.977ZM307.066 297.78C307.066 298.433 307.215 299.017 307.514 299.53C307.822 300.034 308.237 300.431 308.76 300.72C309.292 301 309.885 301.14 310.538 301.14C311.201 301.14 311.793 301 312.316 300.72C312.839 300.431 313.249 300.034 313.548 299.53C313.856 299.017 314.01 298.433 314.01 297.78C314.01 297.117 313.856 296.534 313.548 296.03C313.249 295.526 312.839 295.134 312.316 294.854C311.793 294.565 311.201 294.42 310.538 294.42C309.885 294.42 309.292 294.565 308.76 294.854C308.237 295.134 307.822 295.526 307.514 296.03C307.215 296.534 307.066 297.117 307.066 297.78ZM308.62 297.78C308.62 297.379 308.704 297.024 308.872 296.716C309.04 296.408 309.269 296.17 309.558 296.002C309.847 295.834 310.174 295.75 310.538 295.75C310.902 295.75 311.229 295.834 311.518 296.002C311.807 296.17 312.036 296.408 312.204 296.716C312.372 297.024 312.456 297.379 312.456 297.78C312.456 298.181 312.372 298.536 312.204 298.844C312.036 299.143 311.807 299.381 311.518 299.558C311.229 299.726 310.902 299.81 310.538 299.81C310.174 299.81 309.847 299.726 309.558 299.558C309.269 299.381 309.04 299.143 308.872 298.844C308.704 298.536 308.62 298.181 308.62 297.78ZM319.602 297.08V301H321.156V296.898C321.156 296.133 320.965 295.531 320.582 295.092C320.2 294.644 319.644 294.42 318.916 294.42C318.478 294.42 318.095 294.513 317.768 294.7C317.451 294.887 317.19 295.171 316.984 295.554V294.56H315.458V301H316.984V297.08C316.984 296.791 317.04 296.539 317.152 296.324C317.274 296.1 317.442 295.932 317.656 295.82C317.871 295.699 318.123 295.638 318.412 295.638C318.814 295.638 319.112 295.759 319.308 296.002C319.504 296.245 319.602 296.604 319.602 297.08ZM323.381 298.872L322.499 299.768C322.686 300.011 322.919 300.244 323.199 300.468C323.479 300.683 323.801 300.86 324.165 301C324.529 301.131 324.935 301.196 325.383 301.196C326.083 301.196 326.638 301.014 327.049 300.65C327.469 300.277 327.679 299.787 327.679 299.18C327.679 298.788 327.59 298.471 327.413 298.228C327.236 297.985 326.998 297.78 326.699 297.612C326.4 297.444 326.069 297.29 325.705 297.15C325.444 297.047 325.206 296.949 324.991 296.856C324.786 296.763 324.618 296.66 324.487 296.548C324.366 296.427 324.305 296.291 324.305 296.142C324.305 295.965 324.375 295.829 324.515 295.736C324.655 295.643 324.837 295.596 325.061 295.596C325.378 295.596 325.686 295.675 325.985 295.834C326.284 295.993 326.536 296.198 326.741 296.45L327.581 295.554C327.404 295.339 327.189 295.148 326.937 294.98C326.685 294.812 326.4 294.677 326.083 294.574C325.775 294.471 325.444 294.42 325.089 294.42C324.697 294.42 324.328 294.485 323.983 294.616C323.647 294.737 323.376 294.929 323.171 295.19C322.975 295.451 322.877 295.778 322.877 296.17C322.877 296.553 322.966 296.87 323.143 297.122C323.33 297.374 323.563 297.579 323.843 297.738C324.132 297.887 324.422 298.018 324.711 298.13C325 298.233 325.252 298.335 325.467 298.438C325.682 298.531 325.85 298.648 325.971 298.788C326.092 298.919 326.153 299.077 326.153 299.264C326.153 299.479 326.074 299.647 325.915 299.768C325.766 299.889 325.556 299.95 325.285 299.95C325.07 299.95 324.856 299.908 324.641 299.824C324.426 299.74 324.216 299.619 324.011 299.46C323.806 299.301 323.596 299.105 323.381 298.872Z" fill="#414618"/>
<path d="M256.92 342.8C256.992 342.344 257.136 341.92 257.352 341.528C257.576 341.128 257.852 340.78 258.18 340.484C258.508 340.18 258.872 339.944 259.272 339.776C259.672 339.6 260.092 339.508 260.532 339.5C261.06 339.5 261.524 339.612 261.924 339.836C262.332 340.052 262.664 340.356 262.92 340.748L263.136 339.404C262.8 339.092 262.432 338.86 262.032 338.708C261.632 338.556 261.168 338.48 260.64 338.48C260.04 338.48 259.472 338.596 258.936 338.828C258.4 339.052 257.916 339.364 257.484 339.764C257.052 340.156 256.692 340.612 256.404 341.132C256.124 341.652 255.94 342.208 255.852 342.8C255.764 343.368 255.78 343.912 255.9 344.432C256.02 344.944 256.228 345.404 256.524 345.812C256.828 346.212 257.208 346.532 257.664 346.772C258.12 347.004 258.644 347.12 259.236 347.12C259.796 347.12 260.296 347.04 260.736 346.88C261.184 346.72 261.604 346.492 261.996 346.196L262.2 344.864C261.832 345.208 261.404 345.5 260.916 345.74C260.436 345.98 259.908 346.096 259.332 346.088C258.9 346.088 258.52 346 258.192 345.824C257.864 345.64 257.592 345.392 257.376 345.08C257.168 344.768 257.02 344.416 256.932 344.024C256.852 343.632 256.848 343.224 256.92 342.8ZM268.536 341.48L267.612 347H268.488L269.448 341.48H268.536ZM263.52 344.24C263.448 344.76 263.492 345.24 263.652 345.68C263.812 346.112 264.068 346.46 264.42 346.724C264.78 346.988 265.22 347.116 265.74 347.108C266.1 347.108 266.432 347.036 266.736 346.892C267.048 346.74 267.32 346.532 267.552 346.268C267.792 346.004 267.988 345.7 268.14 345.356C268.292 345.004 268.396 344.632 268.452 344.24C268.5 343.872 268.5 343.516 268.452 343.172C268.412 342.828 268.32 342.52 268.176 342.248C268.032 341.976 267.832 341.76 267.576 341.6C267.328 341.44 267.02 341.36 266.652 341.36C266.132 341.352 265.648 341.476 265.2 341.732C264.752 341.988 264.38 342.336 264.084 342.776C263.788 343.208 263.6 343.696 263.52 344.24ZM264.48 344.24C264.544 343.864 264.68 343.528 264.888 343.232C265.096 342.928 265.356 342.688 265.668 342.512C265.98 342.336 266.316 342.252 266.676 342.26C266.908 342.268 267.116 342.328 267.3 342.44C267.484 342.544 267.632 342.688 267.744 342.872C267.864 343.056 267.948 343.264 267.996 343.496C268.044 343.728 268.052 343.976 268.02 344.24C267.972 344.52 267.88 344.78 267.744 345.02C267.616 345.252 267.456 345.46 267.264 345.644C267.072 345.82 266.86 345.96 266.628 346.064C266.404 346.16 266.172 346.208 265.932 346.208C265.58 346.208 265.284 346.12 265.044 345.944C264.812 345.768 264.644 345.532 264.54 345.236C264.444 344.932 264.424 344.6 264.48 344.24ZM270.609 349.628L271.977 341.48H271.053L269.637 349.64L270.609 349.628ZM275.997 344.24C276.069 343.72 276.025 343.244 275.865 342.812C275.705 342.372 275.449 342.02 275.097 341.756C274.745 341.492 274.309 341.36 273.789 341.36C273.421 341.368 273.081 341.448 272.769 341.6C272.465 341.744 272.193 341.948 271.953 342.212C271.721 342.476 271.529 342.784 271.377 343.136C271.233 343.48 271.133 343.848 271.077 344.24C271.029 344.608 271.025 344.964 271.065 345.308C271.113 345.652 271.209 345.96 271.353 346.232C271.497 346.504 271.693 346.72 271.941 346.88C272.197 347.04 272.509 347.12 272.877 347.12C273.397 347.12 273.877 346.996 274.317 346.748C274.765 346.492 275.137 346.148 275.433 345.716C275.729 345.276 275.917 344.784 275.997 344.24ZM275.049 344.24C274.985 344.616 274.845 344.956 274.629 345.26C274.421 345.556 274.161 345.792 273.849 345.968C273.537 346.136 273.205 346.216 272.853 346.208C272.613 346.208 272.401 346.156 272.217 346.052C272.041 345.94 271.893 345.792 271.773 345.608C271.653 345.424 271.569 345.216 271.521 344.984C271.481 344.752 271.477 344.504 271.509 344.24C271.549 343.96 271.633 343.704 271.761 343.472C271.897 343.232 272.061 343.024 272.253 342.848C272.445 342.664 272.657 342.52 272.889 342.416C273.121 342.312 273.357 342.26 273.597 342.26C273.949 342.26 274.241 342.352 274.473 342.536C274.713 342.712 274.881 342.952 274.977 343.256C275.073 343.552 275.097 343.88 275.049 344.24ZM276.942 341.48L276.774 342.38H279.474L279.63 341.48H276.942ZM278.106 339.56L276.858 347H277.782L279.078 339.56H278.106ZM280.919 339.2C280.919 339.376 280.983 339.528 281.111 339.656C281.239 339.784 281.391 339.848 281.567 339.848C281.751 339.848 281.907 339.784 282.035 339.656C282.163 339.528 282.227 339.376 282.227 339.2C282.227 339.016 282.163 338.86 282.035 338.732C281.907 338.604 281.751 338.54 281.567 338.54C281.391 338.54 281.239 338.604 281.111 338.732C280.983 338.86 280.919 339.016 280.919 339.2ZM280.691 341.48L279.779 347H280.727L281.663 341.48H280.691ZM282.694 344.24C282.622 344.752 282.674 345.228 282.85 345.668C283.034 346.1 283.314 346.448 283.69 346.712C284.066 346.976 284.522 347.108 285.058 347.108C285.602 347.108 286.102 346.98 286.558 346.724C287.014 346.468 287.39 346.124 287.686 345.692C287.99 345.252 288.178 344.768 288.25 344.24C288.322 343.728 288.266 343.256 288.082 342.824C287.906 342.384 287.626 342.032 287.242 341.768C286.866 341.496 286.414 341.36 285.886 341.36C285.342 341.36 284.842 341.492 284.386 341.756C283.93 342.012 283.55 342.36 283.246 342.8C282.95 343.232 282.766 343.712 282.694 344.24ZM283.642 344.24C283.698 343.88 283.826 343.552 284.026 343.256C284.234 342.952 284.49 342.712 284.794 342.536C285.106 342.352 285.442 342.26 285.802 342.26C286.162 342.268 286.462 342.368 286.702 342.56C286.942 342.744 287.114 342.984 287.218 343.28C287.322 343.576 287.35 343.896 287.302 344.24C287.246 344.6 287.114 344.932 286.906 345.236C286.698 345.532 286.442 345.772 286.138 345.956C285.834 346.132 285.498 346.216 285.13 346.208C284.77 346.208 284.47 346.116 284.23 345.932C283.99 345.74 283.818 345.496 283.714 345.2C283.618 344.896 283.594 344.576 283.642 344.24ZM292.994 343.64L292.418 347H293.354L293.954 343.52C294.002 343.136 293.982 342.78 293.894 342.452C293.806 342.124 293.642 341.86 293.402 341.66C293.162 341.46 292.842 341.36 292.442 341.36C292.074 341.36 291.746 341.444 291.458 341.612C291.178 341.78 290.938 342.012 290.738 342.308L290.87 341.48H289.922L288.962 347H289.922L290.522 343.592C290.562 343.344 290.654 343.12 290.798 342.92C290.95 342.72 291.138 342.56 291.362 342.44C291.594 342.32 291.846 342.26 292.118 342.26C292.382 342.26 292.582 342.324 292.718 342.452C292.854 342.58 292.942 342.748 292.982 342.956C293.022 343.164 293.026 343.392 292.994 343.64ZM295.691 345.332L294.911 345.776C295.015 345.992 295.167 346.204 295.367 346.412C295.567 346.62 295.811 346.792 296.099 346.928C296.395 347.056 296.727 347.12 297.095 347.12C297.471 347.12 297.803 347.044 298.091 346.892C298.379 346.732 298.603 346.52 298.763 346.256C298.931 345.992 299.015 345.7 299.015 345.38C299.015 345.052 298.943 344.788 298.799 344.588C298.663 344.38 298.479 344.208 298.247 344.072C298.015 343.936 297.763 343.808 297.491 343.688C297.307 343.608 297.143 343.528 296.999 343.448C296.855 343.368 296.739 343.276 296.651 343.172C296.563 343.068 296.519 342.94 296.519 342.788C296.519 342.604 296.591 342.456 296.735 342.344C296.887 342.232 297.087 342.176 297.335 342.176C297.591 342.176 297.823 342.248 298.031 342.392C298.247 342.536 298.431 342.708 298.583 342.908L299.291 342.428C299.123 342.124 298.875 341.872 298.547 341.672C298.219 341.464 297.835 341.36 297.395 341.36C297.099 341.36 296.811 341.42 296.531 341.54C296.259 341.652 296.035 341.824 295.859 342.056C295.683 342.28 295.595 342.564 295.595 342.908C295.595 343.212 295.667 343.464 295.811 343.664C295.955 343.856 296.135 344.016 296.351 344.144C296.567 344.264 296.779 344.364 296.987 344.444C297.155 344.516 297.323 344.6 297.491 344.696C297.659 344.784 297.799 344.896 297.911 345.032C298.023 345.16 298.079 345.312 298.079 345.488C298.079 345.704 297.995 345.888 297.827 346.04C297.659 346.184 297.439 346.256 297.167 346.256C296.943 346.256 296.739 346.216 296.555 346.136C296.371 346.048 296.207 345.936 296.063 345.8C295.927 345.656 295.803 345.5 295.691 345.332Z" fill="#535353"/>
<path d="M245.068 326.576L244.528 326.912C244.664 327.304 244.856 327.668 245.104 328.004C245.352 328.34 245.66 328.608 246.028 328.808C246.396 329.008 246.824 329.108 247.312 329.108C247.656 329.108 247.976 329.056 248.272 328.952C248.568 328.84 248.824 328.684 249.04 328.484C249.264 328.276 249.436 328.032 249.556 327.752C249.684 327.472 249.748 327.16 249.748 326.816C249.748 326.448 249.684 326.132 249.556 325.868C249.428 325.596 249.26 325.364 249.052 325.172C248.852 324.98 248.628 324.82 248.38 324.692C248.132 324.564 247.892 324.456 247.66 324.368C247.212 324.208 246.836 324.04 246.532 323.864C246.228 323.68 246 323.476 245.848 323.252C245.696 323.028 245.62 322.76 245.62 322.448C245.62 322.072 245.752 321.76 246.016 321.512C246.28 321.256 246.656 321.128 247.144 321.128C247.512 321.128 247.82 321.2 248.068 321.344C248.316 321.48 248.52 321.652 248.68 321.86C248.848 322.068 248.976 322.28 249.064 322.496L249.64 322.172C249.528 321.9 249.364 321.636 249.148 321.38C248.932 321.124 248.66 320.912 248.332 320.744C248.012 320.576 247.628 320.492 247.18 320.492C246.748 320.492 246.36 320.58 246.016 320.756C245.672 320.924 245.404 321.164 245.212 321.476C245.02 321.78 244.924 322.132 244.924 322.532C244.924 322.892 244.992 323.2 245.128 323.456C245.272 323.712 245.456 323.932 245.68 324.116C245.904 324.292 246.144 324.444 246.4 324.572C246.664 324.692 246.916 324.796 247.156 324.884C247.476 325.004 247.78 325.144 248.068 325.304C248.364 325.456 248.604 325.656 248.788 325.904C248.972 326.152 249.064 326.48 249.064 326.888C249.064 327.352 248.908 327.736 248.596 328.04C248.292 328.336 247.868 328.484 247.324 328.484C246.924 328.484 246.58 328.4 246.292 328.232C246.004 328.056 245.76 327.824 245.56 327.536C245.368 327.248 245.204 326.928 245.068 326.576ZM251.865 326.984V323.48H251.241V327.056C251.241 327.688 251.393 328.192 251.697 328.568C252.001 328.936 252.441 329.12 253.017 329.12C253.433 329.12 253.793 329.008 254.097 328.784C254.401 328.56 254.629 328.248 254.781 327.848V329H255.405V323.48H254.781V326.84C254.781 327.152 254.709 327.436 254.565 327.692C254.429 327.948 254.237 328.152 253.989 328.304C253.749 328.456 253.473 328.532 253.161 328.532C252.713 328.532 252.385 328.396 252.177 328.124C251.969 327.844 251.865 327.464 251.865 326.984ZM257.864 319.64H257.24V329H257.864V319.64ZM262.58 326.24C262.58 325.64 262.46 325.128 262.22 324.704C261.988 324.272 261.668 323.94 261.26 323.708C260.86 323.476 260.412 323.36 259.916 323.36C259.452 323.36 259.044 323.488 258.692 323.744C258.34 323.992 258.064 324.332 257.864 324.764C257.672 325.196 257.576 325.688 257.576 326.24C257.576 326.784 257.672 327.276 257.864 327.716C258.064 328.148 258.34 328.492 258.692 328.748C259.044 328.996 259.452 329.12 259.916 329.12C260.412 329.12 260.86 329.004 261.26 328.772C261.668 328.54 261.988 328.208 262.22 327.776C262.46 327.344 262.58 326.832 262.58 326.24ZM261.956 326.24C261.956 326.72 261.86 327.132 261.668 327.476C261.476 327.82 261.22 328.084 260.9 328.268C260.58 328.444 260.224 328.532 259.832 328.532C259.496 328.532 259.176 328.432 258.872 328.232C258.568 328.032 258.324 327.76 258.14 327.416C257.956 327.072 257.864 326.68 257.864 326.24C257.864 325.8 257.956 325.408 258.14 325.064C258.324 324.72 258.568 324.448 258.872 324.248C259.176 324.048 259.496 323.948 259.832 323.948C260.224 323.948 260.58 324.04 260.9 324.224C261.22 324.4 261.476 324.66 261.668 325.004C261.86 325.348 261.956 325.76 261.956 326.24ZM264.615 319.64H263.991V329H264.615V319.64ZM267.531 325.448V329H268.155V325.376C268.155 324.944 268.087 324.58 267.951 324.284C267.815 323.98 267.615 323.752 267.351 323.6C267.087 323.44 266.763 323.36 266.379 323.36C265.995 323.36 265.655 323.46 265.359 323.66C265.063 323.86 264.827 324.132 264.651 324.476C264.483 324.812 264.399 325.2 264.399 325.64H264.615C264.615 325.328 264.683 325.044 264.819 324.788C264.963 324.532 265.155 324.328 265.395 324.176C265.643 324.024 265.923 323.948 266.235 323.948C266.691 323.948 267.019 324.08 267.219 324.344C267.427 324.608 267.531 324.976 267.531 325.448ZM272.126 329.12C272.678 329.12 273.158 329.008 273.566 328.784C273.982 328.552 274.346 328.196 274.658 327.716L274.154 327.392C273.906 327.784 273.622 328.072 273.302 328.256C272.99 328.44 272.622 328.532 272.198 328.532C271.798 328.532 271.446 328.436 271.142 328.244C270.846 328.052 270.614 327.78 270.446 327.428C270.286 327.076 270.206 326.664 270.206 326.192C270.206 325.728 270.29 325.328 270.458 324.992C270.626 324.648 270.858 324.384 271.154 324.2C271.458 324.008 271.814 323.912 272.222 323.912C272.574 323.912 272.89 323.996 273.17 324.164C273.45 324.332 273.67 324.564 273.83 324.86C273.998 325.156 274.082 325.492 274.082 325.868C274.082 325.932 274.07 326 274.046 326.072C274.03 326.136 274.014 326.188 273.998 326.228L274.262 325.856H269.966V326.396H274.73C274.738 326.356 274.742 326.308 274.742 326.252C274.75 326.196 274.754 326.144 274.754 326.096C274.754 325.56 274.646 325.088 274.43 324.68C274.222 324.264 273.926 323.94 273.542 323.708C273.166 323.476 272.726 323.36 272.222 323.36C271.702 323.36 271.242 323.484 270.842 323.732C270.442 323.972 270.13 324.308 269.906 324.74C269.682 325.172 269.57 325.668 269.57 326.228C269.57 326.788 269.678 327.288 269.894 327.728C270.118 328.16 270.422 328.5 270.806 328.748C271.19 328.996 271.63 329.12 272.126 329.12ZM276.263 327.344C276.263 327.064 276.327 326.836 276.455 326.66C276.583 326.484 276.759 326.352 276.983 326.264C277.215 326.176 277.487 326.132 277.799 326.132C278.135 326.132 278.455 326.18 278.759 326.276C279.071 326.364 279.363 326.504 279.635 326.696V326.3C279.563 326.228 279.443 326.14 279.275 326.036C279.107 325.932 278.891 325.84 278.627 325.76C278.371 325.672 278.063 325.628 277.703 325.628C277.063 325.628 276.555 325.784 276.179 326.096C275.811 326.408 275.627 326.832 275.627 327.368C275.627 327.76 275.715 328.084 275.891 328.34C276.067 328.596 276.299 328.792 276.587 328.928C276.875 329.056 277.175 329.12 277.487 329.12C277.807 329.12 278.123 329.052 278.435 328.916C278.747 328.78 279.007 328.572 279.215 328.292C279.423 328.012 279.527 327.656 279.527 327.224L279.383 326.696C279.383 327.104 279.303 327.448 279.143 327.728C278.983 328.008 278.771 328.22 278.507 328.364C278.251 328.508 277.967 328.58 277.655 328.58C277.399 328.58 277.163 328.536 276.947 328.448C276.739 328.352 276.571 328.212 276.443 328.028C276.323 327.844 276.263 327.616 276.263 327.344ZM276.287 324.488C276.391 324.408 276.519 324.324 276.671 324.236C276.831 324.148 277.019 324.072 277.235 324.008C277.451 323.944 277.695 323.912 277.967 323.912C278.231 323.912 278.455 323.948 278.639 324.02C278.823 324.092 278.967 324.188 279.071 324.308C279.183 324.428 279.263 324.564 279.311 324.716C279.359 324.86 279.383 325.012 279.383 325.172V329H280.007V325.088C280.007 324.72 279.927 324.408 279.767 324.152C279.607 323.896 279.379 323.7 279.083 323.564C278.787 323.428 278.431 323.36 278.015 323.36C277.527 323.36 277.115 323.436 276.779 323.588C276.451 323.732 276.183 323.876 275.975 324.02L276.287 324.488ZM285.957 319.64V329H286.581V319.64H285.957ZM281.241 326.24C281.241 326.832 281.361 327.344 281.601 327.776C281.841 328.208 282.161 328.54 282.561 328.772C282.969 329.004 283.417 329.12 283.905 329.12C284.385 329.12 284.797 328.996 285.141 328.748C285.485 328.492 285.753 328.148 285.945 327.716C286.145 327.276 286.245 326.784 286.245 326.24C286.245 325.688 286.145 325.196 285.945 324.764C285.753 324.332 285.485 323.992 285.141 323.744C284.797 323.488 284.385 323.36 283.905 323.36C283.417 323.36 282.969 323.476 282.561 323.708C282.161 323.94 281.841 324.272 281.601 324.704C281.361 325.128 281.241 325.64 281.241 326.24ZM281.877 326.24C281.877 325.76 281.969 325.348 282.153 325.004C282.345 324.66 282.601 324.4 282.921 324.224C283.249 324.04 283.605 323.948 283.989 323.948C284.333 323.948 284.653 324.048 284.949 324.248C285.253 324.448 285.497 324.72 285.681 325.064C285.865 325.408 285.957 325.8 285.957 326.24C285.957 326.68 285.865 327.072 285.681 327.416C285.497 327.76 285.253 328.032 284.949 328.232C284.653 328.432 284.333 328.532 283.989 328.532C283.605 328.532 283.249 328.444 282.921 328.268C282.601 328.084 282.345 327.82 282.153 327.476C281.969 327.132 281.877 326.72 281.877 326.24ZM288.413 320.984C288.413 321.104 288.457 321.208 288.545 321.296C288.633 321.384 288.737 321.428 288.857 321.428C288.985 321.428 289.089 321.384 289.169 321.296C289.257 321.208 289.301 321.104 289.301 320.984C289.301 320.856 289.257 320.752 289.169 320.672C289.089 320.584 288.985 320.54 288.857 320.54C288.737 320.54 288.633 320.584 288.545 320.672C288.457 320.752 288.413 320.856 288.413 320.984ZM288.545 323.48V329H289.169V323.48H288.545ZM294.742 325.448V329H295.366V325.376C295.366 324.76 295.214 324.272 294.91 323.912C294.606 323.544 294.166 323.36 293.59 323.36C293.182 323.36 292.822 323.472 292.51 323.696C292.206 323.92 291.978 324.232 291.826 324.632V323.48H291.202V329H291.826V325.64C291.826 325.32 291.894 325.032 292.03 324.776C292.174 324.52 292.366 324.32 292.606 324.176C292.854 324.024 293.134 323.948 293.446 323.948C293.894 323.948 294.222 324.08 294.43 324.344C294.638 324.608 294.742 324.976 294.742 325.448ZM296.913 329.36C296.913 329.832 297.021 330.248 297.237 330.608C297.453 330.976 297.753 331.26 298.137 331.46C298.529 331.66 298.977 331.76 299.48 331.76C299.945 331.76 300.377 331.652 300.777 331.436C301.177 331.22 301.501 330.896 301.749 330.464C301.997 330.04 302.121 329.512 302.121 328.88V323.48H301.497V328.88C301.497 329.408 301.397 329.84 301.197 330.176C301.005 330.52 300.757 330.772 300.453 330.932C300.149 331.092 299.825 331.172 299.48 331.172C299.097 331.172 298.757 331.092 298.461 330.932C298.173 330.772 297.949 330.556 297.789 330.284C297.629 330.012 297.549 329.704 297.549 329.36H296.913ZM296.781 326.24C296.781 326.832 296.901 327.344 297.141 327.776C297.381 328.208 297.701 328.54 298.101 328.772C298.509 329.004 298.957 329.12 299.445 329.12C299.925 329.12 300.337 328.996 300.681 328.748C301.025 328.492 301.293 328.148 301.485 327.716C301.685 327.276 301.785 326.784 301.785 326.24C301.785 325.688 301.685 325.196 301.485 324.764C301.293 324.332 301.025 323.992 300.681 323.744C300.337 323.488 299.925 323.36 299.445 323.36C298.957 323.36 298.509 323.476 298.101 323.708C297.701 323.94 297.381 324.272 297.141 324.704C296.901 325.128 296.781 325.64 296.781 326.24ZM297.417 326.24C297.417 325.76 297.509 325.348 297.693 325.004C297.885 324.66 298.141 324.4 298.461 324.224C298.789 324.04 299.145 323.948 299.529 323.948C299.785 323.948 300.029 324.008 300.261 324.128C300.501 324.24 300.713 324.4 300.897 324.608C301.089 324.816 301.237 325.056 301.341 325.328C301.445 325.6 301.497 325.896 301.497 326.216C301.497 326.664 301.405 327.064 301.221 327.416C301.037 327.76 300.793 328.032 300.489 328.232C300.193 328.432 299.873 328.532 299.529 328.532C299.145 328.532 298.789 328.444 298.461 328.268C298.141 328.084 297.885 327.82 297.693 327.476C297.509 327.132 297.417 326.72 297.417 326.24ZM303.94 327.428L303.436 327.716C303.516 327.948 303.64 328.172 303.808 328.388C303.984 328.604 304.212 328.78 304.492 328.916C304.78 329.052 305.116 329.12 305.5 329.12C306.028 329.12 306.456 328.972 306.784 328.676C307.12 328.372 307.288 327.98 307.288 327.5C307.288 327.188 307.208 326.932 307.048 326.732C306.896 326.532 306.692 326.364 306.436 326.228C306.188 326.092 305.916 325.968 305.62 325.856C305.396 325.776 305.184 325.692 304.984 325.604C304.784 325.516 304.624 325.404 304.504 325.268C304.384 325.124 304.324 324.944 304.324 324.728C304.324 324.464 304.416 324.264 304.6 324.128C304.792 323.992 305.024 323.924 305.296 323.924C305.664 323.924 305.964 324.012 306.196 324.188C306.428 324.364 306.608 324.572 306.736 324.812L307.252 324.5C307.156 324.292 307.02 324.104 306.844 323.936C306.668 323.768 306.456 323.632 306.208 323.528C305.96 323.424 305.68 323.372 305.368 323.372C305.08 323.372 304.808 323.424 304.552 323.528C304.304 323.624 304.1 323.776 303.94 323.984C303.788 324.192 303.712 324.452 303.712 324.764C303.712 325.092 303.788 325.36 303.94 325.568C304.1 325.768 304.3 325.928 304.54 326.048C304.78 326.168 305.028 326.276 305.284 326.372C305.524 326.452 305.748 326.544 305.956 326.648C306.164 326.744 306.332 326.868 306.46 327.02C306.588 327.164 306.652 327.348 306.652 327.572C306.652 327.876 306.548 328.116 306.34 328.292C306.14 328.46 305.872 328.544 305.536 328.544C305.248 328.544 304.996 328.492 304.78 328.388C304.572 328.284 304.4 328.148 304.264 327.98C304.128 327.812 304.02 327.628 303.94 327.428Z" fill="#535353"/>
</svg>
