<svg width="621" height="547" viewBox="0 0 621 547" fill="none" xmlns="http://www.w3.org/2000/svg">
<path d="M207.638 480.75L315 296.956L422.362 480.75H207.638Z" fill="#3E5797" stroke="black" stroke-width="5"/>
<rect x="2.5" y="2.5" width="616" height="409" rx="7.5" fill="#3E5797" stroke="black" stroke-width="5"/>
<rect x="26.5" y="24.5" width="567" height="366" rx="7.5" fill="#ECECEC" stroke="black" stroke-width="5"/>
<line x1="151.5" y1="481.5" x2="478.5" y2="481.5" stroke="black" stroke-width="5" stroke-linecap="round"/>
<ellipse cx="191.5" cy="157" rx="21.5" ry="24" fill="black"/>
<ellipse cx="439.5" cy="157" rx="21.5" ry="24" fill="black"/>
<rect x="303" y="199" width="25" height="11" fill="#CBA0A0"/>
<rect x="305" y="207" width="20" height="8" fill="#CBA0A0"/>
<path d="M299.529 202.595C299.519 201.475 299.62 200.338 299.833 199.184C300.014 198.031 300.167 197.245 300.291 196.828C300.446 196.314 300.746 195.88 301.19 195.523C301.635 195.167 302.113 194.987 302.625 194.982L329.84 194.725C330.512 194.718 331.074 194.937 331.526 195.381C331.979 195.856 332.208 196.43 332.215 197.102C332.245 200.334 331.796 203.602 330.867 206.907C329.939 210.212 328.174 213.077 325.572 215.502C322.971 217.959 319.351 219.209 314.711 219.253C311.352 219.284 308.529 218.575 306.243 217.125C303.989 215.674 302.306 213.69 301.194 211.172C300.115 208.654 299.559 205.795 299.529 202.595ZM304.329 202.55C304.364 206.294 305.256 209.214 307.004 211.309C308.752 213.437 311.306 214.485 314.666 214.453C318.826 214.414 321.901 213.024 323.891 210.285C325.882 207.579 327.032 204 327.342 199.548L304.591 199.763C304.409 200.853 304.322 201.782 304.329 202.55Z" fill="black"/>
</svg>
