<svg width="56" height="78" viewBox="0 0 56 78" fill="none" xmlns="http://www.w3.org/2000/svg">
<path d="M19 21V0H25V18H37V21H19Z" fill="#F19F1B"/>
<path d="M8.25 46.75V24H14.75V43.5H27.75V46.75H8.25ZM35.55 46.75V37H32.3V33.75H29.05V24H35.55V33.75H42.05V24H48.55V33.75H45.3V37H42.05V46.75H35.55Z" fill="#9CDCF0"/>
<path d="M7 74.5V71H3.5V67.5H0V57H3.5V53.5H7V50H17.5V53.5H21V57H24.5V67.5H21V71H17.5V74.5H7ZM10.5 71H17.5V57H14V53.5H7V67.5H10.5V71ZM31.5 74.5V71H28V67.5H35V71H45.5V64H35V60.5H38.5V57H42V53.5H31.5V50H52.5V53.5H49V57H45.5V60.5H49V64H52.5V71H49V74.5H31.5Z" fill="#569CD6"/>
</svg>
